<svg width="334" height="141" viewBox="0 0 334 141" fill="none" xmlns="http://www.w3.org/2000/svg">
<path d="M46.0019 78.5085C45.0005 79.5995 43.5871 80.0903 42.2164 79.9597C41.9607 78.6144 42.3229 77.1668 43.3243 76.0792C44.3258 74.9882 45.7392 74.4974 47.1099 74.628C47.3656 75.9733 47.0034 77.421 46.0019 78.5085Z" fill="#BAD8D3"/>
<path d="M46.0019 83.9776C45.0005 85.0687 43.5871 85.5595 42.2164 85.4288C41.9607 84.0836 42.3229 82.6359 43.3243 81.5484C44.3258 80.4609 45.7392 79.9665 47.1099 80.0972C47.3656 81.4424 47.0034 82.8901 46.0019 83.9776Z" fill="#BAD8D3"/>
<path d="M51.0907 73.0393C52.0921 74.1303 53.5055 74.6211 54.8763 74.4905C55.132 73.1452 54.7697 71.6975 53.7683 70.61C52.7669 69.519 51.3535 69.0282 49.9827 69.1588C49.727 70.5041 50.0893 71.9517 51.0907 73.0393Z" fill="#BAD8D3"/>
<path d="M59.9863 73.0393C58.9849 74.1303 57.5715 74.6211 56.2007 74.4905C55.9451 73.1452 56.3073 71.6975 57.3087 70.61C58.3102 69.519 59.7235 69.0282 61.0943 69.1588C61.35 70.5041 60.9877 71.9517 59.9863 73.0393Z" fill="#BAD8D3"/>
<path d="M51.0907 78.5084C52.0921 79.5994 53.5055 80.0902 54.8763 79.9596C55.132 78.6143 54.7697 77.1667 53.7683 76.0791C52.7669 74.9916 51.3535 74.4973 49.9827 74.6279C49.727 75.9732 50.0893 77.4209 51.0907 78.5084Z" fill="#BAD8D3"/>
<path d="M59.9863 78.5085C58.9849 79.5995 57.5715 80.0903 56.2007 79.9597C55.9451 78.6144 56.3073 77.1668 57.3087 76.0792C58.3102 74.9882 59.7235 74.4974 61.0943 74.628C61.35 75.9733 60.9877 77.421 59.9863 78.5085Z" fill="#BAD8D3"/>
<path d="M51.0907 83.9777C52.0921 85.0688 53.5055 85.5596 54.8763 85.4289C55.132 84.0837 54.7697 82.636 53.7683 81.5485C52.7669 80.4574 51.3535 79.9666 49.9827 80.0973C49.727 81.4426 50.0893 82.8902 51.0907 83.9777Z" fill="#BAD8D3"/>
<path d="M59.9863 83.9777C58.9849 85.0688 57.5715 85.5596 56.2007 85.4289C55.9451 84.0837 56.3073 82.636 57.3087 81.5485C58.3102 80.4574 59.7235 79.9666 61.0943 80.0973C61.35 81.4426 60.9877 82.8902 59.9863 83.9777Z" fill="#BAD8D3"/>
<path d="M57.3656 66.9235C57.3301 68.3994 56.5844 69.6917 55.4622 70.4862C54.3826 69.6352 53.7043 68.3076 53.7399 66.8317C53.7754 65.3558 54.5211 64.0635 55.6433 63.269C56.7229 64.12 57.4011 65.4476 57.3656 66.9235Z" fill="#BAD8D3"/>
<path d="M56.4708 86.3364H54.5994V103.408H56.4708V86.3364Z" fill="#BAD8D3"/>
<path d="M65.0753 73.0393C66.0768 74.1303 67.4901 74.6211 68.8609 74.4905C69.1166 73.1452 68.7543 71.6975 67.7529 70.61C66.7515 69.519 65.3381 69.0282 63.9673 69.1588C63.7117 70.5041 64.0739 71.9517 65.0753 73.0393Z" fill="#BAD8D3"/>
<path d="M73.9709 73.0393C72.9695 74.1303 71.5561 74.6211 70.1854 74.4905C69.9297 73.1452 70.2919 71.6975 71.2933 70.61C72.2948 69.519 73.7081 69.0282 75.0789 69.1588C75.3346 70.5041 74.9724 71.9517 73.9709 73.0393Z" fill="#BAD8D3"/>
<path d="M65.0753 78.5085C66.0768 79.5995 67.4901 80.0903 68.8609 79.9597C69.1166 78.6144 68.7543 77.1668 67.7529 76.0792C66.7515 74.9882 65.3381 74.4974 63.9673 74.628C63.7117 75.9733 64.0739 77.421 65.0753 78.5085Z" fill="#BAD8D3"/>
<path d="M73.9709 78.5085C72.9695 79.5995 71.5561 80.0903 70.1854 79.9597C69.9297 78.6144 70.2919 77.1668 71.2933 76.0792C72.2948 74.9882 73.7081 74.4974 75.0789 74.628C75.3346 75.9733 74.9724 77.421 73.9709 78.5085Z" fill="#BAD8D3"/>
<path d="M65.0753 83.9777C66.0768 85.0688 67.4901 85.5596 68.8609 85.4289C69.1166 84.0837 68.7543 82.636 67.7529 81.5485C66.7515 80.4574 65.3381 79.9666 63.9673 80.0973C63.7117 81.4426 64.0739 82.8902 65.0753 83.9777Z" fill="#BAD8D3"/>
<path d="M73.9709 83.9777C72.9695 85.0688 71.5561 85.5596 70.1854 85.4289C69.9297 84.0837 70.2919 82.636 71.2933 81.5485C72.2948 80.4574 73.7081 79.9666 75.0789 80.0973C75.3346 81.4426 74.9724 82.8902 73.9709 83.9777Z" fill="#BAD8D3"/>
<path d="M71.3502 66.9235C71.3147 68.3994 70.569 69.6917 69.4468 70.4862C68.3672 69.6352 67.689 68.3076 67.7245 66.8317C67.76 65.3558 68.5057 64.0635 69.6279 63.269C70.7075 64.12 71.3857 65.4476 71.3502 66.9235Z" fill="#BAD8D3"/>
<path d="M70.4589 86.3364H68.5874V103.408H70.4589V86.3364Z" fill="#BAD8D3"/>
<path d="M79.0565 73.0393C80.058 74.1303 81.4713 74.6211 82.8421 74.4905C83.0978 73.1452 82.7356 71.6975 81.7341 70.61C80.7327 69.519 79.3193 69.0282 77.9485 69.1588C77.6929 70.5041 78.0551 71.9517 79.0565 73.0393Z" fill="#BAD8D3"/>
<path d="M87.9521 73.0393C86.9507 74.1303 85.5373 74.6211 84.1666 74.4905C83.9109 73.1452 84.2731 71.6975 85.2745 70.61C86.276 69.519 87.6893 69.0282 89.0601 69.1588C89.3158 70.5041 88.9536 71.9517 87.9521 73.0393Z" fill="#BAD8D3"/>
<path d="M79.0565 78.5085C80.058 79.5995 81.4713 80.0903 82.8421 79.9597C83.0978 78.6144 82.7356 77.1668 81.7341 76.0792C80.7327 74.9882 79.3193 74.4974 77.9485 74.628C77.6929 75.9733 78.0551 77.421 79.0565 78.5085Z" fill="#BAD8D3"/>
<path d="M87.9521 78.5085C86.9507 79.5995 85.5373 80.0903 84.1666 79.9597C83.9109 78.6144 84.2731 77.1668 85.2745 76.0792C86.276 74.9882 87.6893 74.4974 89.0601 74.628C89.3158 75.9733 88.9536 77.421 87.9521 78.5085Z" fill="#BAD8D3"/>
<path d="M79.0565 83.9777C80.058 85.0688 81.4713 85.5596 82.8421 85.4289C83.0978 84.0837 82.7356 82.636 81.7341 81.5485C80.7327 80.4574 79.3193 79.9666 77.9485 80.0973C77.6929 81.4426 78.0551 82.8902 79.0565 83.9777Z" fill="#BAD8D3"/>
<path d="M87.9521 83.9777C86.9507 85.0688 85.5373 85.5596 84.1666 85.4289C83.9109 84.0837 84.2731 82.636 85.2745 81.5485C86.276 80.4574 87.6893 79.9666 89.0601 80.0973C89.3158 81.4426 88.9536 82.8902 87.9521 83.9777Z" fill="#BAD8D3"/>
<path d="M85.3351 66.9235C85.2996 68.3994 84.5538 69.6917 83.4317 70.4862C82.3521 69.6352 81.6738 68.3076 81.7093 66.8317C81.7448 65.3558 82.4906 64.0635 83.6128 63.269C84.6923 64.12 85.3706 65.4476 85.3351 66.9235Z" fill="#BAD8D3"/>
<path d="M84.4401 86.3364H82.5686V103.408H84.4401V86.3364Z" fill="#BAD8D3"/>
<path d="M93.0409 73.0393C94.0423 74.1303 95.4557 74.6211 96.8265 74.4905C97.0821 73.1452 96.7199 71.6975 95.7185 70.61C94.7171 69.519 93.3037 69.0282 91.9329 69.1588C91.6772 70.5041 92.0395 71.9517 93.0409 73.0393Z" fill="#BAD8D3"/>
<path d="M101.936 73.0393C100.935 74.1303 99.5217 74.6211 98.1509 74.4905C97.8953 73.1452 98.2575 71.6975 99.2589 70.61C100.26 69.519 101.674 69.0282 103.044 69.1588C103.3 70.5041 102.938 71.9517 101.936 73.0393Z" fill="#BAD8D3"/>
<path d="M93.0409 78.5085C94.0423 79.5995 95.4557 80.0903 96.8265 79.9597C97.0821 78.6144 96.7199 77.1668 95.7185 76.0792C94.7171 74.9882 93.3037 74.4974 91.9329 74.628C91.6772 75.9733 92.0395 77.421 93.0409 78.5085Z" fill="#BAD8D3"/>
<path d="M101.936 78.5085C100.935 79.5995 99.5217 80.0903 98.1509 79.9597C97.8953 78.6144 98.2575 77.1668 99.2589 76.0792C100.26 74.9882 101.674 74.4974 103.044 74.628C103.3 75.9733 102.938 77.421 101.936 78.5085Z" fill="#BAD8D3"/>
<path d="M93.0409 83.9777C94.0423 85.0688 95.4557 85.5596 96.8265 85.4289C97.0821 84.0837 96.7199 82.636 95.7185 81.5485C94.7171 80.4574 93.3037 79.9666 91.9329 80.0973C91.6772 81.4426 92.0395 82.8902 93.0409 83.9777Z" fill="#BAD8D3"/>
<path d="M101.936 83.9777C100.935 85.0688 99.5217 85.5596 98.1509 85.4289C97.8953 84.0837 98.2575 82.636 99.2589 81.5485C100.26 80.4574 101.674 79.9666 103.044 80.0973C103.3 81.4426 102.938 82.8902 101.936 83.9777Z" fill="#BAD8D3"/>
<path d="M99.3158 66.9235C99.2803 68.3994 98.5346 69.6917 97.4124 70.4862C96.3328 69.6352 95.6545 68.3076 95.6901 66.8317C95.7256 65.3558 96.4713 64.0635 97.5935 63.269C98.6731 64.12 99.3513 65.4476 99.3158 66.9235Z" fill="#BAD8D3"/>
<path d="M98.4247 86.3364H96.5532V103.408H98.4247V86.3364Z" fill="#BAD8D3"/>
<path d="M107.026 73.0393C108.027 74.1303 109.44 74.6211 110.811 74.4905C111.067 73.1452 110.705 71.6975 109.703 70.61C108.702 69.519 107.288 69.0282 105.918 69.1588C105.662 70.5041 106.024 71.9517 107.026 73.0393Z" fill="#BAD8D3"/>
<path d="M115.921 73.0393C114.92 74.1303 113.506 74.6211 112.136 74.4905C111.88 73.1452 112.242 71.6975 113.244 70.61C114.245 69.519 115.658 69.0282 117.029 69.1588C117.285 70.5041 116.923 71.9517 115.921 73.0393Z" fill="#BAD8D3"/>
<path d="M107.026 78.5084C108.027 79.5994 109.44 80.0902 110.811 79.9596C111.067 78.6143 110.705 77.1667 109.703 76.0791C108.702 74.9916 107.288 74.4973 105.918 74.6279C105.662 75.9732 106.024 77.4209 107.026 78.5084Z" fill="#BAD8D3"/>
<path d="M115.921 78.5085C114.92 79.5995 113.506 80.0903 112.136 79.9597C111.88 78.6144 112.242 77.1668 113.244 76.0792C114.245 74.9882 115.658 74.4974 117.029 74.628C117.285 75.9733 116.923 77.421 115.921 78.5085Z" fill="#BAD8D3"/>
<path d="M107.026 83.9777C108.027 85.0688 109.44 85.5596 110.811 85.4289C111.067 84.0837 110.705 82.636 109.703 81.5485C108.702 80.4574 107.288 79.9666 105.918 80.0973C105.662 81.4426 106.024 82.8902 107.026 83.9777Z" fill="#BAD8D3"/>
<path d="M115.921 83.9777C114.92 85.0688 113.506 85.5596 112.136 85.4289C111.88 84.0837 112.242 82.636 113.244 81.5485C114.245 80.4574 115.658 79.9666 117.029 80.0973C117.285 81.4426 116.923 82.8902 115.921 83.9777Z" fill="#BAD8D3"/>
<path d="M113.3 66.9235C113.265 68.3994 112.519 69.6917 111.397 70.4862C110.317 69.6352 109.639 68.3076 109.675 66.8317C109.71 65.3558 110.456 64.0635 111.578 63.269C112.658 64.12 113.336 65.4476 113.3 66.9235Z" fill="#BAD8D3"/>
<path d="M112.409 86.3364H110.538V103.408H112.409V86.3364Z" fill="#BAD8D3"/>
<path d="M121.01 73.0393C122.012 74.1303 123.425 74.6211 124.796 74.4905C125.051 73.1452 124.689 71.6975 123.688 70.61C122.686 69.519 121.273 69.0282 119.902 69.1588C119.646 70.5041 120.009 71.9517 121.01 73.0393Z" fill="#BAD8D3"/>
<path d="M129.906 73.0393C128.904 74.1303 127.491 74.6211 126.12 74.4905C125.864 73.1452 126.227 71.6975 127.228 70.61C128.23 69.519 129.643 69.0282 131.014 69.1588C131.269 70.5041 130.907 71.9517 129.906 73.0393Z" fill="#BAD8D3"/>
<path d="M121.01 78.5085C122.012 79.5995 123.425 80.0903 124.796 79.9597C125.051 78.6144 124.689 77.1668 123.688 76.0792C122.686 74.9882 121.273 74.4974 119.902 74.628C119.646 75.9733 120.009 77.421 121.01 78.5085Z" fill="#BAD8D3"/>
<path d="M129.906 78.5085C128.904 79.5995 127.491 80.0903 126.12 79.9597C125.864 78.6144 126.227 77.1668 127.228 76.0792C128.23 74.9882 129.643 74.4974 131.014 74.628C131.269 75.9733 130.907 77.421 129.906 78.5085Z" fill="#BAD8D3"/>
<path d="M121.01 83.9777C122.012 85.0688 123.425 85.5596 124.796 85.4289C125.051 84.0837 124.689 82.636 123.688 81.5485C122.686 80.4574 121.273 79.9666 119.902 80.0973C119.646 81.4426 120.009 82.8902 121.01 83.9777Z" fill="#BAD8D3"/>
<path d="M129.906 83.9777C128.904 85.0688 127.491 85.5596 126.12 85.4289C125.864 84.0837 126.227 82.636 127.228 81.5485C128.23 80.4574 129.643 79.9666 131.014 80.0973C131.269 81.4426 130.907 82.8902 129.906 83.9777Z" fill="#BAD8D3"/>
<path d="M127.285 66.9235C127.25 68.3994 126.504 69.6917 125.382 70.4862C124.302 69.6352 123.624 68.3076 123.659 66.8317C123.695 65.3558 124.441 64.0635 125.563 63.269C126.642 64.12 127.321 65.4476 127.285 66.9235Z" fill="#BAD8D3"/>
<path d="M126.394 86.3364H124.522V103.408H126.394V86.3364Z" fill="#BAD8D3"/>
<path d="M135.197 73.0393C136.199 74.1303 137.612 74.6211 138.983 74.4905C139.238 73.1452 138.876 71.6975 137.875 70.61C136.873 69.519 135.46 69.0282 134.089 69.1588C133.833 70.5041 134.196 71.9517 135.197 73.0393Z" fill="#BAD8D3"/>
<path d="M144.093 73.0393C143.091 74.1303 141.678 74.6211 140.307 74.4905C140.052 73.1452 140.414 71.6975 141.415 70.61C142.417 69.519 143.83 69.0282 145.201 69.1588C145.456 70.5041 145.094 71.9517 144.093 73.0393Z" fill="#BAD8D3"/>
<path d="M135.197 78.5085C136.199 79.5995 137.612 80.0903 138.983 79.9597C139.238 78.6144 138.876 77.1668 137.875 76.0792C136.873 74.9882 135.46 74.4974 134.089 74.628C133.833 75.9733 134.196 77.421 135.197 78.5085Z" fill="#BAD8D3"/>
<path d="M144.093 78.5085C143.091 79.5995 141.678 80.0903 140.307 79.9597C140.052 78.6144 140.414 77.1668 141.415 76.0792C142.417 74.9882 143.83 74.4974 145.201 74.628C145.456 75.9733 145.094 77.421 144.093 78.5085Z" fill="#BAD8D3"/>
<path d="M135.197 83.9777C136.199 85.0688 137.612 85.5596 138.983 85.4289C139.238 84.0837 138.876 82.636 137.875 81.5485C136.873 80.4574 135.46 79.9666 134.089 80.0973C133.833 81.4426 134.196 82.8902 135.197 83.9777Z" fill="#BAD8D3"/>
<path d="M144.093 83.9777C143.091 85.0688 141.678 85.5596 140.307 85.4289C140.052 84.0837 140.414 82.636 141.415 81.5485C142.417 80.4574 143.83 79.9666 145.201 80.0973C145.456 81.4426 145.094 82.8902 144.093 83.9777Z" fill="#BAD8D3"/>
<path d="M141.472 66.9235C141.437 68.3994 140.691 69.6917 139.569 70.4862C138.489 69.6352 137.811 68.3076 137.846 66.8317C137.882 65.3558 138.628 64.0635 139.75 63.269C140.829 64.12 141.508 65.4476 141.472 66.9235Z" fill="#BAD8D3"/>
<path d="M140.581 86.3364H138.709V103.408H140.581V86.3364Z" fill="#BAD8D3"/>
<path d="M149.182 73.0393C150.183 74.1303 151.597 74.6211 152.967 74.4905C153.223 73.1452 152.861 71.6975 151.859 70.61C150.858 69.519 149.445 69.0282 148.074 69.1588C147.818 70.5041 148.18 71.9517 149.182 73.0393Z" fill="#BAD8D3"/>
<path d="M158.077 73.0393C157.076 74.1303 155.663 74.6211 154.292 74.4905C154.036 73.1452 154.398 71.6975 155.4 70.61C156.401 69.519 157.815 69.0282 159.185 69.1588C159.441 70.5041 159.079 71.9517 158.077 73.0393Z" fill="#BAD8D3"/>
<path d="M149.182 78.5084C150.183 79.5994 151.597 80.0902 152.967 79.9596C153.223 78.6143 152.861 77.1667 151.859 76.0791C150.858 74.9916 149.445 74.4973 148.074 74.6279C147.818 75.9732 148.18 77.4209 149.182 78.5084Z" fill="#BAD8D3"/>
<path d="M158.077 78.5085C157.076 79.5995 155.663 80.0903 154.292 79.9597C154.036 78.6144 154.398 77.1668 155.4 76.0792C156.401 74.9882 157.815 74.4974 159.185 74.628C159.441 75.9733 159.079 77.421 158.077 78.5085Z" fill="#BAD8D3"/>
<path d="M149.182 83.9777C150.183 85.0688 151.597 85.5596 152.967 85.4289C153.223 84.0837 152.861 82.636 151.859 81.5485C150.858 80.4574 149.445 79.9666 148.074 80.0973C147.818 81.4426 148.18 82.8902 149.182 83.9777Z" fill="#BAD8D3"/>
<path d="M158.077 83.9777C157.076 85.0688 155.663 85.5596 154.292 85.4289C154.036 84.0837 154.398 82.636 155.4 81.5485C156.401 80.4574 157.815 79.9666 159.185 80.0973C159.441 81.4426 159.079 82.8902 158.077 83.9777Z" fill="#BAD8D3"/>
<path d="M155.457 66.9235C155.421 68.3994 154.675 69.6917 153.553 70.4862C152.474 69.6352 151.795 68.3076 151.831 66.8317C151.866 65.3558 152.612 64.0635 153.734 63.269C154.814 64.12 155.492 65.4476 155.457 66.9235Z" fill="#BAD8D3"/>
<path d="M154.565 86.3364H152.694V103.408H154.565V86.3364Z" fill="#BAD8D3"/>
<path d="M163.166 73.0393C164.168 74.1303 165.581 74.6211 166.952 74.4905C167.208 73.1452 166.845 71.6975 165.844 70.61C164.843 69.519 163.429 69.0282 162.058 69.1588C161.803 70.5041 162.165 71.9517 163.166 73.0393Z" fill="#BAD8D3"/>
<path d="M172.062 73.0393C171.061 74.1303 169.647 74.6211 168.276 74.4905C168.021 73.1452 168.383 71.6975 169.384 70.61C170.386 69.519 171.799 69.0282 173.17 69.1588C173.426 70.5041 173.063 71.9517 172.062 73.0393Z" fill="#BAD8D3"/>
<path d="M163.166 78.5085C164.168 79.5995 165.581 80.0903 166.952 79.9597C167.208 78.6144 166.845 77.1668 165.844 76.0792C164.843 74.9882 163.429 74.4974 162.058 74.628C161.803 75.9733 162.165 77.421 163.166 78.5085Z" fill="#BAD8D3"/>
<path d="M172.062 78.5085C171.061 79.5995 169.647 80.0903 168.276 79.9597C168.021 78.6144 168.383 77.1668 169.384 76.0792C170.386 74.9882 171.799 74.4974 173.17 74.628C173.426 75.9733 173.063 77.421 172.062 78.5085Z" fill="#BAD8D3"/>
<path d="M163.166 83.9777C164.168 85.0688 165.581 85.5596 166.952 85.4289C167.208 84.0837 166.845 82.636 165.844 81.5485C164.843 80.4574 163.429 79.9666 162.058 80.0973C161.803 81.4426 162.165 82.8902 163.166 83.9777Z" fill="#BAD8D3"/>
<path d="M172.062 83.9777C171.061 85.0688 169.647 85.5596 168.276 85.4289C168.021 84.0837 168.383 82.636 169.384 81.5485C170.386 80.4574 171.799 79.9666 173.17 80.0973C173.426 81.4426 173.063 82.8902 172.062 83.9777Z" fill="#BAD8D3"/>
<path d="M169.441 66.9235C169.406 68.3994 168.66 69.6917 167.538 70.4862C166.458 69.6352 165.78 68.3076 165.816 66.8317C165.851 65.3558 166.597 64.0635 167.719 63.269C168.799 64.12 169.477 65.4476 169.441 66.9235Z" fill="#BAD8D3"/>
<path d="M168.546 86.3364H166.675V103.408H168.546V86.3364Z" fill="#BAD8D3"/>
<path d="M177.147 73.0393C178.149 74.1303 179.562 74.6211 180.933 74.4905C181.189 73.1452 180.826 71.6975 179.825 70.61C178.824 69.519 177.41 69.0282 176.039 69.1588C175.784 70.5041 176.146 71.9517 177.147 73.0393Z" fill="#BAD8D3"/>
<path d="M186.043 73.0393C185.042 74.1303 183.628 74.6211 182.257 74.4905C182.002 73.1452 182.364 71.6975 183.365 70.61C184.367 69.519 185.78 69.0282 187.151 69.1588C187.407 70.5041 187.044 71.9517 186.043 73.0393Z" fill="#BAD8D3"/>
<path d="M177.147 78.5085C178.149 79.5995 179.562 80.0903 180.933 79.9597C181.189 78.6144 180.826 77.1668 179.825 76.0792C178.824 74.9882 177.41 74.4974 176.039 74.628C175.784 75.9733 176.146 77.421 177.147 78.5085Z" fill="#BAD8D3"/>
<path d="M186.043 78.5085C185.042 79.5995 183.628 80.0903 182.257 79.9597C182.002 78.6144 182.364 77.1668 183.365 76.0792C184.367 74.9882 185.78 74.4974 187.151 74.628C187.407 75.9733 187.044 77.421 186.043 78.5085Z" fill="#BAD8D3"/>
<path d="M177.147 83.9777C178.149 85.0688 179.562 85.5596 180.933 85.4289C181.189 84.0837 180.826 82.636 179.825 81.5485C178.824 80.4574 177.41 79.9666 176.039 80.0973C175.784 81.4426 176.146 82.8902 177.147 83.9777Z" fill="#BAD8D3"/>
<path d="M186.043 83.9777C185.042 85.0688 183.628 85.5596 182.257 85.4289C182.002 84.0837 182.364 82.636 183.365 81.5485C184.367 80.4574 185.78 79.9666 187.151 80.0973C187.407 81.4426 187.044 82.8902 186.043 83.9777Z" fill="#BAD8D3"/>
<path d="M183.426 66.9235C183.39 68.3994 182.645 69.6917 181.522 70.4862C180.443 69.6352 179.765 68.3076 179.8 66.8317C179.836 65.3558 180.581 64.0635 181.704 63.269C182.783 64.12 183.461 65.4476 183.426 66.9235Z" fill="#BAD8D3"/>
<path d="M182.531 86.3364H180.659V103.408H182.531V86.3364Z" fill="#BAD8D3"/>
<path d="M191.132 73.0393C192.133 74.1303 193.547 74.6211 194.918 74.4905C195.173 73.1452 194.811 71.6975 193.81 70.61C192.808 69.519 191.395 69.0282 190.024 69.1588C189.768 70.5041 190.131 71.9517 191.132 73.0393Z" fill="#BAD8D3"/>
<path d="M200.028 73.0393C199.026 74.1303 197.613 74.6211 196.242 74.4905C195.987 73.1452 196.349 71.6975 197.35 70.61C198.352 69.519 199.765 69.0282 201.136 69.1588C201.391 70.5041 201.029 71.9517 200.028 73.0393Z" fill="#BAD8D3"/>
<path d="M191.132 78.5085C192.133 79.5995 193.547 80.0903 194.918 79.9597C195.173 78.6144 194.811 77.1668 193.81 76.0792C192.808 74.9882 191.395 74.4974 190.024 74.628C189.768 75.9733 190.131 77.421 191.132 78.5085Z" fill="#BAD8D3"/>
<path d="M200.028 78.5085C199.026 79.5995 197.613 80.0903 196.242 79.9597C195.987 78.6144 196.349 77.1668 197.35 76.0792C198.352 74.9882 199.765 74.4974 201.136 74.628C201.391 75.9733 201.029 77.421 200.028 78.5085Z" fill="#BAD8D3"/>
<path d="M191.132 83.9777C192.133 85.0688 193.547 85.5596 194.918 85.4289C195.173 84.0837 194.811 82.636 193.81 81.5485C192.808 80.4574 191.395 79.9666 190.024 80.0973C189.768 81.4426 190.131 82.8902 191.132 83.9777Z" fill="#BAD8D3"/>
<path d="M200.028 83.9777C199.026 85.0688 197.613 85.5596 196.242 85.4289C195.987 84.0837 196.349 82.636 197.35 81.5485C198.352 80.4574 199.765 79.9666 201.136 80.0973C201.391 81.4426 201.029 82.8902 200.028 83.9777Z" fill="#BAD8D3"/>
<path d="M197.407 66.9235C197.371 68.3994 196.626 69.6917 195.503 70.4862C194.424 69.6352 193.746 68.3076 193.781 66.8317C193.817 65.3558 194.562 64.0635 195.685 63.269C196.764 64.12 197.442 65.4476 197.407 66.9235Z" fill="#BAD8D3"/>
<path d="M196.516 86.3364H194.644V103.408H196.516V86.3364Z" fill="#BAD8D3"/>
<path d="M205.117 73.0393C206.118 74.1303 207.531 74.6211 208.902 74.4905C209.158 73.1452 208.796 71.6975 207.794 70.61C206.793 69.519 205.379 69.0282 204.009 69.1588C203.753 70.5041 204.115 71.9517 205.117 73.0393Z" fill="#BAD8D3"/>
<path d="M214.012 73.0393C213.011 74.1303 211.597 74.6211 210.227 74.4905C209.971 73.1452 210.333 71.6975 211.335 70.61C212.336 69.519 213.749 69.0282 215.12 69.1588C215.376 70.5041 215.014 71.9517 214.012 73.0393Z" fill="#BAD8D3"/>
<path d="M205.117 78.5085C206.118 79.5995 207.531 80.0903 208.902 79.9597C209.158 78.6144 208.796 77.1668 207.794 76.0792C206.793 74.9882 205.379 74.4974 204.009 74.628C203.753 75.9733 204.115 77.421 205.117 78.5085Z" fill="#BAD8D3"/>
<path d="M214.012 78.5085C213.011 79.5995 211.597 80.0903 210.227 79.9597C209.971 78.6144 210.333 77.1668 211.335 76.0792C212.336 74.9882 213.749 74.4974 215.12 74.628C215.376 75.9733 215.014 77.421 214.012 78.5085Z" fill="#BAD8D3"/>
<path d="M205.117 83.9777C206.118 85.0688 207.531 85.5596 208.902 85.4289C209.158 84.0837 208.796 82.636 207.794 81.5485C206.793 80.4574 205.379 79.9666 204.009 80.0973C203.753 81.4426 204.115 82.8902 205.117 83.9777Z" fill="#BAD8D3"/>
<path d="M214.012 83.9777C213.011 85.0688 211.597 85.5596 210.227 85.4289C209.971 84.0837 210.333 82.636 211.335 81.5485C212.336 80.4574 213.749 79.9666 215.12 80.0973C215.376 81.4426 215.014 82.8902 214.012 83.9777Z" fill="#BAD8D3"/>
<path d="M211.392 66.9235C211.356 68.3994 210.61 69.6917 209.488 70.4862C208.408 69.6352 207.73 68.3076 207.766 66.8317C207.801 65.3558 208.547 64.0635 209.669 63.269C210.749 64.12 211.427 65.4476 211.392 66.9235Z" fill="#BAD8D3"/>
<path d="M210.5 86.3364H208.629V103.408H210.5V86.3364Z" fill="#BAD8D3"/>
<path d="M219.101 73.0393C220.103 74.1303 221.516 74.6211 222.887 74.4905C223.142 73.1452 222.78 71.6975 221.779 70.61C220.777 69.519 219.364 69.0282 217.993 69.1588C217.738 70.5041 218.1 71.9517 219.101 73.0393Z" fill="#BAD8D3"/>
<path d="M227.997 73.0393C226.995 74.1303 225.582 74.6211 224.211 74.4905C223.956 73.1452 224.318 71.6975 225.319 70.61C226.321 69.519 227.734 69.0282 229.105 69.1588C229.36 70.5041 228.998 71.9517 227.997 73.0393Z" fill="#BAD8D3"/>
<path d="M219.101 78.5085C220.103 79.5995 221.516 80.0903 222.887 79.9597C223.142 78.6144 222.78 77.1668 221.779 76.0792C220.777 74.9882 219.364 74.4974 217.993 74.628C217.738 75.9733 218.1 77.421 219.101 78.5085Z" fill="#BAD8D3"/>
<path d="M227.997 78.5085C226.995 79.5995 225.582 80.0903 224.211 79.9597C223.956 78.6144 224.318 77.1668 225.319 76.0792C226.321 74.9882 227.734 74.4974 229.105 74.628C229.36 75.9733 228.998 77.421 227.997 78.5085Z" fill="#BAD8D3"/>
<path d="M219.101 83.9777C220.103 85.0688 221.516 85.5596 222.887 85.4289C223.142 84.0837 222.78 82.636 221.779 81.5485C220.777 80.4574 219.364 79.9666 217.993 80.0973C217.738 81.4426 218.1 82.8902 219.101 83.9777Z" fill="#BAD8D3"/>
<path d="M227.997 83.9777C226.995 85.0688 225.582 85.5596 224.211 85.4289C223.956 84.0837 224.318 82.636 225.319 81.5485C226.321 80.4574 227.734 79.9666 229.105 80.0973C229.36 81.4426 228.998 82.8902 227.997 83.9777Z" fill="#BAD8D3"/>
<path d="M225.376 66.9235C225.341 68.3994 224.595 69.6917 223.473 70.4862C222.393 69.6352 221.715 68.3076 221.75 66.8317C221.786 65.3558 222.532 64.0635 223.654 63.269C224.733 64.12 225.412 65.4476 225.376 66.9235Z" fill="#BAD8D3"/>
<path d="M224.485 86.3364H222.613V103.408H224.485V86.3364Z" fill="#BAD8D3"/>
<path d="M233.086 73.0393C234.087 74.1303 235.5 74.6211 236.871 74.4905C237.127 73.1452 236.765 71.6975 235.763 70.61C234.762 69.519 233.348 69.0282 231.978 69.1588C231.722 70.5041 232.084 71.9517 233.086 73.0393Z" fill="#BAD8D3"/>
<path d="M241.981 73.0393C240.98 74.1303 239.566 74.6211 238.196 74.4905C237.94 73.1452 238.302 71.6975 239.304 70.61C240.305 69.519 241.718 69.0282 243.089 69.1588C243.345 70.5041 242.983 71.9517 241.981 73.0393Z" fill="#BAD8D3"/>
<path d="M233.086 78.5085C234.087 79.5995 235.5 80.0903 236.871 79.9597C237.127 78.6144 236.765 77.1668 235.763 76.0792C234.762 74.9882 233.348 74.4974 231.978 74.628C231.722 75.9733 232.084 77.421 233.086 78.5085Z" fill="#BAD8D3"/>
<path d="M241.981 78.5085C240.98 79.5995 239.566 80.0903 238.196 79.9597C237.94 78.6144 238.302 77.1668 239.304 76.0792C240.305 74.9882 241.718 74.4974 243.089 74.628C243.345 75.9733 242.983 77.421 241.981 78.5085Z" fill="#BAD8D3"/>
<path d="M233.086 83.9777C234.087 85.0688 235.5 85.5596 236.871 85.4289C237.127 84.0837 236.765 82.636 235.763 81.5485C234.762 80.4574 233.348 79.9666 231.978 80.0973C231.722 81.4426 232.084 82.8902 233.086 83.9777Z" fill="#BAD8D3"/>
<path d="M241.981 83.9777C240.98 85.0688 239.566 85.5596 238.196 85.4289C237.94 84.0837 238.302 82.636 239.304 81.5485C240.305 80.4574 241.718 79.9666 243.089 80.0973C243.345 81.4426 242.983 82.8902 241.981 83.9777Z" fill="#BAD8D3"/>
<path d="M239.361 66.9235C239.325 68.3994 238.579 69.6917 237.457 70.4862C236.377 69.6352 235.699 68.3076 235.735 66.8317C235.77 65.3558 236.516 64.0635 237.638 63.269C238.718 64.12 239.396 65.4476 239.361 66.9235Z" fill="#BAD8D3"/>
<path d="M238.469 86.3364H236.598V103.408H238.469V86.3364Z" fill="#BAD8D3"/>
<path d="M247.067 73.0393C248.068 74.1303 249.482 74.6211 250.852 74.4905C251.108 73.1452 250.746 71.6975 249.744 70.61C248.743 69.519 247.33 69.0282 245.959 69.1588C245.703 70.5041 246.065 71.9517 247.067 73.0393Z" fill="#BAD8D3"/>
<path d="M255.962 73.0393C254.961 74.1303 253.548 74.6211 252.177 74.4905C251.921 73.1452 252.283 71.6975 253.285 70.61C254.286 69.519 255.7 69.0282 257.07 69.1588C257.326 70.5041 256.964 71.9517 255.962 73.0393Z" fill="#BAD8D3"/>
<path d="M247.067 78.5085C248.068 79.5995 249.482 80.0903 250.852 79.9597C251.108 78.6144 250.746 77.1668 249.744 76.0792C248.743 74.9882 247.33 74.4974 245.959 74.628C245.703 75.9733 246.065 77.421 247.067 78.5085Z" fill="#BAD8D3"/>
<path d="M255.962 78.5085C254.961 79.5995 253.548 80.0903 252.177 79.9597C251.921 78.6144 252.283 77.1668 253.285 76.0792C254.286 74.9882 255.7 74.4974 257.07 74.628C257.326 75.9733 256.964 77.421 255.962 78.5085Z" fill="#BAD8D3"/>
<path d="M247.067 83.9777C248.068 85.0688 249.482 85.5596 250.852 85.4289C251.108 84.0837 250.746 82.636 249.744 81.5485C248.743 80.4574 247.33 79.9666 245.959 80.0973C245.703 81.4426 246.065 82.8902 247.067 83.9777Z" fill="#BAD8D3"/>
<path d="M255.962 83.9777C254.961 85.0688 253.548 85.5596 252.177 85.4289C251.921 84.0837 252.283 82.636 253.285 81.5485C254.286 80.4574 255.7 79.9666 257.07 80.0973C257.326 81.4426 256.964 82.8902 255.962 83.9777Z" fill="#BAD8D3"/>
<path d="M253.345 66.9235C253.31 68.3994 252.564 69.6917 251.442 70.4862C250.362 69.6352 249.684 68.3076 249.72 66.8317C249.755 65.3558 250.501 64.0635 251.623 63.269C252.703 64.12 253.381 65.4476 253.345 66.9235Z" fill="#BAD8D3"/>
<path d="M252.45 86.3364H250.579V103.408H252.45V86.3364Z" fill="#BAD8D3"/>
<path d="M261.051 73.0392C262.053 74.1302 263.466 74.621 264.837 74.4904C265.093 73.1451 264.73 71.6974 263.729 70.6099C262.728 69.5224 261.314 69.0281 259.943 69.1587C259.688 70.504 260.05 71.9516 261.051 73.0392Z" fill="#BAD8D3"/>
<path d="M269.947 73.0393C268.946 74.1303 267.532 74.6211 266.162 74.4905C265.906 73.1452 266.268 71.6975 267.27 70.61C268.271 69.519 269.684 69.0282 271.055 69.1588C271.311 70.5041 270.949 71.9517 269.947 73.0393Z" fill="#BAD8D3"/>
<path d="M261.051 78.5085C262.053 79.5995 263.466 80.0903 264.837 79.9597C265.093 78.6144 264.73 77.1668 263.729 76.0792C262.728 74.9882 261.314 74.4974 259.943 74.628C259.688 75.9733 260.05 77.421 261.051 78.5085Z" fill="#BAD8D3"/>
<path d="M269.947 78.5085C268.946 79.5995 267.532 80.0903 266.162 79.9597C265.906 78.6144 266.268 77.1668 267.27 76.0792C268.271 74.9882 269.684 74.4974 271.055 74.628C271.311 75.9733 270.949 77.421 269.947 78.5085Z" fill="#BAD8D3"/>
<path d="M261.051 83.9777C262.053 85.0688 263.466 85.5596 264.837 85.4289C265.093 84.0837 264.73 82.636 263.729 81.5485C262.728 80.4574 261.314 79.9666 259.943 80.0973C259.688 81.4426 260.05 82.8902 261.051 83.9777Z" fill="#BAD8D3"/>
<path d="M269.947 83.9777C268.946 85.0688 267.532 85.5596 266.162 85.4289C265.906 84.0837 266.268 82.636 267.27 81.5485C268.271 80.4574 269.684 79.9666 271.055 80.0973C271.311 81.4426 270.949 82.8902 269.947 83.9777Z" fill="#BAD8D3"/>
<path d="M267.326 66.9235C267.291 68.3994 266.545 69.6917 265.423 70.4862C264.343 69.6352 263.665 68.3076 263.701 66.8317C263.736 65.3558 264.482 64.0635 265.604 63.269C266.684 64.12 267.362 65.4476 267.326 66.9235Z" fill="#BAD8D3"/>
<path d="M266.435 86.3364H264.563V103.408H266.435V86.3364Z" fill="#BAD8D3"/>
<path d="M275.132 73.0393C276.133 74.1303 277.547 74.6211 278.917 74.4905C279.173 73.1452 278.811 71.6975 277.809 70.61C276.808 69.519 275.395 69.0282 274.024 69.1588C273.768 70.5041 274.13 71.9517 275.132 73.0393Z" fill="#BAD8D3"/>
<path d="M284.028 73.0393C283.026 74.1303 281.613 74.6211 280.242 74.4905C279.986 73.1452 280.349 71.6975 281.35 70.61C282.351 69.519 283.765 69.0282 285.136 69.1588C285.391 70.5041 285.029 71.9517 284.028 73.0393Z" fill="#BAD8D3"/>
<path d="M275.132 78.5085C276.133 79.5995 277.547 80.0903 278.917 79.9597C279.173 78.6144 278.811 77.1668 277.809 76.0792C276.808 74.9882 275.395 74.4974 274.024 74.628C273.768 75.9733 274.13 77.421 275.132 78.5085Z" fill="#BAD8D3"/>
<path d="M284.028 78.5085C283.026 79.5995 281.613 80.0903 280.242 79.9597C279.986 78.6144 280.349 77.1668 281.35 76.0792C282.351 74.9882 283.765 74.4974 285.136 74.628C285.391 75.9733 285.029 77.421 284.028 78.5085Z" fill="#BAD8D3"/>
<path d="M275.132 83.9777C276.133 85.0688 277.547 85.5596 278.917 85.4289C279.173 84.0837 278.811 82.636 277.809 81.5485C276.808 80.4574 275.395 79.9666 274.024 80.0973C273.768 81.4426 274.13 82.8902 275.132 83.9777Z" fill="#BAD8D3"/>
<path d="M284.028 83.9777C283.026 85.0688 281.613 85.5596 280.242 85.4289C279.986 84.0837 280.349 82.636 281.35 81.5485C282.351 80.4574 283.765 79.9666 285.136 80.0973C285.391 81.4426 285.029 82.8902 284.028 83.9777Z" fill="#BAD8D3"/>
<path d="M281.407 66.9235C281.371 68.3994 280.625 69.6917 279.503 70.4862C278.424 69.6352 277.745 68.3076 277.781 66.8317C277.816 65.3558 278.562 64.0635 279.684 63.269C280.764 64.12 281.442 65.4476 281.407 66.9235Z" fill="#BAD8D3"/>
<path d="M280.515 86.3364H278.644V103.408H280.515V86.3364Z" fill="#BAD8D3"/>
<path d="M44.6633 108.584H291.986V102.847C291.986 101.194 284.28 99.8525 274.773 99.8525C265.267 99.8525 257.792 101.155 257.582 102.776C257.372 101.155 249.762 99.8525 240.387 99.8525C232.067 99.8525 225.128 100.88 223.523 102.243C221.921 100.88 214.978 99.8525 206.658 99.8525C198.338 99.8525 191.398 100.88 189.793 102.243C188.192 100.88 181.249 99.8525 172.929 99.8525C164.608 99.8525 157.669 100.88 156.064 102.243C154.463 100.88 147.52 99.8525 139.2 99.8525C130.879 99.8525 123.94 100.88 122.335 102.243C120.733 100.88 113.791 99.8525 105.47 99.8525C97.1499 99.8525 90.2109 100.88 88.6058 102.243C87.0042 100.88 80.0616 99.8525 71.7412 99.8525C63.4207 99.8525 56.4817 100.88 54.8766 102.243C53.275 100.88 50.4518 99.8525 42.1313 99.8525" fill="#BAD8D3"/>
<path d="M246.357 116.942C254.592 116.942 261.268 110.304 261.268 102.116C261.268 93.9275 254.592 87.2896 246.357 87.2896C238.121 87.2896 231.445 93.9275 231.445 102.116C231.445 110.304 238.121 116.942 246.357 116.942Z" fill="white"/>
<path d="M185.702 117.92C197.888 117.92 207.766 108.098 207.766 95.9824C207.766 83.8667 197.888 74.0449 185.702 74.0449C173.517 74.0449 163.639 83.8667 163.639 95.9824C163.639 108.098 173.517 117.92 185.702 117.92Z" fill="white"/>
<path d="M86.6596 97.2535V86.7279H86.5531C85.9245 74.3874 75.6935 64.5645 63.1259 64.5645C50.5582 64.5645 40.6575 74.0626 39.7271 86.1135H39.6348V117.796C39.6348 119.643 41.1405 121.14 42.9977 121.14H47.5433V87.8225C47.5433 86.9998 48.1505 86.2618 48.9744 86.1841C49.9226 86.0958 50.718 86.8303 50.718 87.7554V121.14H75.7504C75.729 121.034 75.6864 120.935 75.6864 120.822V87.8225C75.6864 86.9998 76.2937 86.2618 77.1176 86.1841C78.0657 86.0958 78.8612 86.8338 78.8612 87.7554V105.279H98.4922V97.257H86.6596V97.2535Z" fill="#358278"/>
<path d="M118.196 102.035L105.418 82.3137C105.264 82.076 104.945 82.0074 104.706 82.1606L90.0244 91.5648C89.7853 91.7179 89.7163 92.0347 89.8703 92.2724L102.648 111.994C102.802 112.231 103.121 112.3 103.36 112.147L118.042 102.743C118.281 102.59 118.35 102.273 118.196 102.035Z" fill="#358278"/>
<path d="M114.777 101.478L104.516 85.6422C104.434 85.5143 104.262 85.4774 104.134 85.5598L93.3744 92.4514C93.2458 92.5337 93.2087 92.7042 93.2916 92.832L103.552 108.668C103.635 108.796 103.806 108.833 103.935 108.75L114.694 101.859C114.822 101.776 114.86 101.606 114.777 101.478Z" fill="white"/>
<path d="M69.5465 79.3451C68.3569 80.4079 67.7567 81.8767 67.7603 83.3491C69.234 83.508 70.7646 83.0702 71.9542 82.0074C73.1439 80.9446 73.744 79.4757 73.7405 78.0033C72.2667 77.8445 70.7362 78.2823 69.5465 79.3451Z" fill="white"/>
<path d="M67.1459 86.0606C65.9066 83.7267 59.7382 84.1116 59.7382 81.9083C59.7382 79.705 63.6693 79.2071 66.0344 81.3469L67.4407 79.7791C66.5067 79.1683 64.6779 78.1655 62.2915 78.1655C59.6352 78.1655 57.366 79.6626 57.366 81.6611C57.366 83.8644 61.0024 84.3269 62.4229 84.6271C64.3547 85.0331 66.2226 85.365 67.1459 86.0571V86.0606Z" fill="white"/>
<path d="M57.6607 85.0366C58.9001 87.3705 65.0685 86.9857 65.0685 89.189C65.0685 91.3004 61.1373 91.8901 58.7722 89.7504L57.366 91.3181C58.2999 91.9289 60.1288 92.9317 62.5152 92.9317C65.1715 92.9317 67.4407 91.4346 67.4407 89.4361C67.4407 87.2328 63.8043 86.7703 62.3838 86.4702C60.452 86.0641 58.584 85.7322 57.6607 85.0402V85.0366Z" fill="white"/>
<path d="M57.366 83.2642C58.4136 84.5141 60.4875 84.8566 62.4548 85.245C64.7169 85.6899 67.2738 86.1701 67.4265 87.5789C66.3718 86.6785 64.8661 86.3608 62.4122 85.93C59.3085 85.3862 57.4228 84.7824 57.366 83.2642Z" fill="white"/>
<path d="M126.452 24.5929L124.924 23.6323L115.684 38.1594L117.212 39.12L126.452 24.5929Z" fill="#358278"/>
<path d="M119.657 38.0688H113.727V39.0681H119.657V38.0688Z" fill="#358278"/>
<path d="M142.861 39.1198L144.389 38.1592L135.149 23.6321L133.621 24.5927L142.861 39.1198Z" fill="#358278"/>
<path d="M140.414 39.0684H146.344V38.0691H140.414V39.0684Z" fill="#358278"/>
<path d="M110.751 23.2286C110.751 25.5025 109.401 28.1154 107.732 28.1154C106.063 28.1154 104.714 25.5025 104.714 23.2286C104.714 20.9547 104.714 20.4004 107.732 20.4004C110.751 20.4004 110.751 20.9583 110.751 23.2286Z" fill="#358278"/>
<path d="M108.304 18.7373H107.161V20.7252H108.304V18.7373Z" fill="#358278"/>
<path d="M93.911 19.5916L103.996 17.6073C104.028 17.6002 104.064 17.6073 104.096 17.6214L107.658 19.6057C107.786 19.6764 107.736 19.8741 107.587 19.8741H93.9359C93.7619 19.8741 93.737 19.6234 93.9075 19.5916H93.911Z" fill="#358278"/>
<path d="M121.554 19.5916L111.468 17.6073C111.436 17.6002 111.401 17.6073 111.369 17.6214L107.807 19.6057C107.679 19.6764 107.729 19.8741 107.878 19.8741H121.529C121.703 19.8741 121.728 19.6234 121.557 19.5916H121.554Z" fill="#358278"/>
<path d="M155.403 23.2286C155.403 25.5025 154.054 28.1154 152.385 28.1154C150.716 28.1154 149.366 25.5025 149.366 23.2286C149.366 20.9547 149.366 20.4004 152.385 20.4004C155.403 20.4004 155.403 20.9583 155.403 23.2286Z" fill="#358278"/>
<path d="M152.956 18.7373H151.813V20.7252H152.956V18.7373Z" fill="#358278"/>
<path d="M138.564 19.5916L148.649 17.6073C148.681 17.6002 148.716 17.6073 148.748 17.6214L152.31 19.6057C152.438 19.6764 152.388 19.8741 152.239 19.8741H138.588C138.414 19.8741 138.39 19.6234 138.56 19.5916H138.564Z" fill="#358278"/>
<path d="M166.206 19.5916L156.121 17.6073C156.089 17.6002 156.053 17.6073 156.021 17.6214L152.459 19.6057C152.332 19.6764 152.381 19.8741 152.53 19.8741H166.181C166.355 19.8741 166.38 19.6234 166.21 19.5916H166.206Z" fill="#358278"/>
<path d="M151.813 24.8669C151.813 24.8669 151.135 25.3436 143.944 26.0215C136.067 26.763 132.772 32.8891 129.917 32.8891C127.062 32.8891 122.86 26.7524 116.255 26.0215L108.794 25.1953V22.4941C108.794 22.4941 117.807 22.5188 119.885 22.4941C121.962 22.4694 126.575 20.0366 129.753 20.0366C132.932 20.0366 137.04 22.4941 139.004 22.4941H151.817V24.8669H151.813Z" fill="#358278"/>
<path d="M130.144 41.3916C133.972 41.3916 137.076 38.3058 137.076 34.4992C137.076 30.6927 133.972 27.6069 130.144 27.6069C126.315 27.6069 123.212 30.6927 123.212 34.4992C123.212 38.3058 126.315 41.3916 130.144 41.3916Z" fill="#358278"/>
<path d="M130.151 47.2703C131.09 47.2703 131.852 46.5131 131.852 45.579C131.852 44.6449 131.09 43.8877 130.151 43.8877C129.212 43.8877 128.45 44.6449 128.45 45.579C128.45 46.5131 129.212 47.2703 130.151 47.2703Z" fill="#358278"/>
<path d="M130.151 52.2805C131.09 52.2805 131.852 51.5233 131.852 50.5892C131.852 49.6552 131.09 48.8979 130.151 48.8979C129.212 48.8979 128.45 49.6552 128.45 50.5892C128.45 51.5233 129.212 52.2805 130.151 52.2805Z" fill="#358278"/>
<path d="M124.355 52.2805C125.295 52.2805 126.056 51.5233 126.056 50.5892C126.056 49.6552 125.295 48.8979 124.355 48.8979C123.416 48.8979 122.654 49.6552 122.654 50.5892C122.654 51.5233 123.416 52.2805 124.355 52.2805Z" fill="#358278"/>
<path d="M130.151 57.2908C131.09 57.2908 131.852 56.5336 131.852 55.5995C131.852 54.6654 131.09 53.9082 130.151 53.9082C129.212 53.9082 128.45 54.6654 128.45 55.5995C128.45 56.5336 129.212 57.2908 130.151 57.2908Z" fill="#358278"/>
<path d="M120.886 57.2908C121.825 57.2908 122.587 56.5336 122.587 55.5995C122.587 54.6654 121.825 53.9082 120.886 53.9082C119.946 53.9082 119.185 54.6654 119.185 55.5995C119.185 56.5336 119.946 57.2908 120.886 57.2908Z" fill="#358278"/>
<path d="M136.252 52.2805C137.191 52.2805 137.953 51.5233 137.953 50.5892C137.953 49.6552 137.191 48.8979 136.252 48.8979C135.312 48.8979 134.551 49.6552 134.551 50.5892C134.551 51.5233 135.312 52.2805 136.252 52.2805Z" fill="#358278"/>
<path d="M141.422 55.5995C141.422 56.5352 140.662 57.2908 139.721 57.2908C138.78 57.2908 138.02 56.5352 138.02 55.5995C138.02 54.6638 138.78 53.9082 139.721 53.9082C140.662 53.9082 141.422 54.6638 141.422 55.5995Z" fill="#358278"/>
<path d="M246.999 78.8648C245.352 75.3657 241.541 71.9266 237.688 71.9266H227.922V55.8645H229.876V55.0418C229.876 54.4451 229.389 53.9614 228.789 53.9614H222.549C221.949 53.9614 221.463 54.4451 221.463 55.0418V55.8645H223.416V71.9266H217.901L212.311 48.6191H179.012L175.148 76.1566C175.042 76.4038 174.981 76.6721 174.907 76.9334C178.099 75.1397 181.778 74.1051 185.706 74.1051C188.355 74.1051 190.884 74.5959 193.238 75.4469V52.316H209.573L217.464 87.1659H205.838C207.034 89.8635 207.713 92.8436 207.713 95.9826C207.713 98.3306 207.333 100.587 206.644 102.705H231.491C231.477 102.455 231.452 102.211 231.452 101.957C231.452 93.8711 238.047 87.3142 246.179 87.3142C247.71 87.3142 249.187 87.5473 250.575 87.978L247.007 78.8613L246.999 78.8648ZM178.973 71.118L181.789 52.316H190.354L190.45 71.118H178.969H178.973Z" fill="#82BD46"/>
<path d="M246.176 115.254C253.474 115.254 259.39 109.372 259.39 102.116C259.39 94.8593 253.474 88.9771 246.176 88.9771C238.878 88.9771 232.962 94.8593 232.962 102.116C232.962 109.372 238.878 115.254 246.176 115.254Z" fill="#82BD46"/>
<path d="M246.175 109.33C250.182 109.33 253.431 106.1 253.431 102.116C253.431 98.132 250.182 94.9023 246.175 94.9023C242.169 94.9023 238.92 98.132 238.92 102.116C238.92 106.1 242.169 109.33 246.175 109.33Z" fill="white"/>
<path d="M185.702 115.614C196.607 115.614 205.447 106.825 205.447 95.9824C205.447 85.14 196.607 76.3506 185.702 76.3506C174.798 76.3506 165.958 85.14 165.958 95.9824C165.958 106.825 174.798 115.614 185.702 115.614Z" fill="#82BD46"/>
<path d="M185.702 106.155C191.353 106.155 195.933 101.601 195.933 95.9826C195.933 90.3645 191.353 85.8101 185.702 85.8101C180.052 85.8101 175.471 90.3645 175.471 95.9826C175.471 101.601 180.052 106.155 185.702 106.155Z" fill="white"/>
<path d="M178.973 71.1179L181.789 52.3159H190.354L190.45 71.1179H178.969H178.973Z" fill="white"/>
<path d="M205.77 87.1094L205.831 87.1659H217.457L209.566 52.3159H193.231V75.4468L193.295 75.5068C198.867 77.5406 203.377 81.7459 205.77 87.1094Z" fill="white"/>
<path d="M50.5795 46.4653C50.5795 40.7487 55.2457 36.1162 61.0022 36.1162H64.7026C70.1004 36.1162 74.5429 40.1909 75.072 45.4131C82.7888 45.805 84.9372 49.1452 84.9372 49.1452H75.3987C75.4804 49.7137 75.5337 50.2892 75.5337 50.8789C75.5337 57.7218 69.9477 63.2653 63.0548 63.2653C56.1619 63.2653 50.5759 57.7182 50.5759 50.8789C50.5759 50.5858 50.6008 50.2998 50.6185 50.0103C50.5937 49.7243 50.5759 49.4347 50.5759 49.1452V46.4653H50.5795Z" fill="#358278"/>
</svg>
