<svg width="264" height="135" viewBox="0 0 264 135" fill="none" xmlns="http://www.w3.org/2000/svg">
<path d="M176.682 85.2231H32.9003C27.3233 85.2231 22.8022 90.0108 22.8022 95.9166C22.8022 101.822 27.3233 106.61 32.9003 106.61H176.682C182.259 106.61 186.78 101.822 186.78 95.9166C186.78 90.0108 182.259 85.2231 176.682 85.2231Z" fill="#BAD8D3"/>
<path d="M43.1026 36.4312C43.1026 36.4312 45.7228 42.1057 45.7228 47.7802C45.7228 53.4547 40.1092 98.3131 41.8946 100.744C43.68 103.175 63.7995 105.068 71.9846 105.068C80.1697 105.068 85.1781 61.128 85.1781 61.128L73.399 36.4312H43.1003H43.1026Z" fill="#358278"/>
<path d="M100.171 36.4312C100.171 36.4312 97.5509 42.1057 97.5509 47.7802C97.5509 53.4547 103.165 98.3131 101.379 100.744C99.5937 103.175 79.4742 105.068 71.2891 105.068C63.104 105.068 58.0956 61.128 58.0956 61.128L69.8747 36.4312H100.173H100.171Z" fill="#358278"/>
<path d="M102.102 21.8387C95.4686 20.2181 94.0333 36.9372 94.0333 36.9372H95.2205C95.5428 35.0735 97.8963 22.2414 101.411 24.024C104.815 25.7502 99.5774 34.6094 98.4296 36.9372H99.9043C99.9043 36.1269 108.739 23.4593 102.105 21.8387H102.102Z" fill="#358278"/>
<path d="M41.4031 21.8387C48.0369 20.2181 49.4722 36.9372 49.4722 36.9372H48.285C47.9627 35.0735 45.6092 22.2414 42.094 24.024C38.6902 25.7502 43.9282 34.6094 45.0759 36.9372H43.6012C43.6012 36.1269 34.7669 23.4593 41.4008 21.8387H41.4031Z" fill="#358278"/>
<path d="M111.491 36.4312C111.491 36.4312 114.111 42.1057 114.111 47.7802C114.111 53.4547 108.497 98.3131 110.283 100.744C112.068 103.175 132.188 105.068 140.373 105.068C148.558 105.068 153.566 61.128 153.566 61.128L141.787 36.4312H111.489H111.491Z" fill="#358278"/>
<path d="M168.557 36.4312C168.557 36.4312 165.937 42.1057 165.937 47.7802C165.937 53.4547 171.55 98.3131 169.765 100.744C167.98 103.175 147.86 105.068 139.675 105.068C131.49 105.068 126.481 61.128 126.481 61.128L138.261 36.4312H168.559H168.557Z" fill="#358278"/>
<path d="M170.491 21.8387C163.857 20.2181 162.422 36.9372 162.422 36.9372H163.609C163.931 35.0735 166.285 22.2414 169.8 24.024C173.204 25.7502 167.966 34.6094 166.818 36.9372H168.293C168.293 36.1269 177.127 23.4593 170.493 21.8387H170.491Z" fill="#358278"/>
<path d="M109.789 21.8387C116.423 20.2181 117.858 36.9372 117.858 36.9372H116.671C116.349 35.0735 113.995 22.2414 110.48 24.024C107.076 25.7502 112.314 34.6094 113.462 36.9372H111.987C111.987 36.1269 103.153 23.4593 109.787 21.8387H109.789Z" fill="#358278"/>
<path d="M79.3628 50.8249C77.7142 52.3939 76.8794 54.5645 76.8841 56.74C78.9268 56.9758 81.0531 56.3251 82.7017 54.756C84.3503 53.187 85.1851 51.0164 85.1804 48.8409C83.1376 48.6052 81.0114 49.2559 79.3628 50.8249Z" fill="white"/>
<path d="M76.0308 60.7448C74.3103 57.2974 65.7566 57.8646 65.7566 54.6111C65.7566 51.3577 71.2056 50.6211 74.4865 53.7837L76.4389 51.4706C75.1427 50.567 72.6084 49.0889 69.2996 49.0889C65.6151 49.0889 62.4686 51.3012 62.4686 54.2527C62.4686 57.5037 67.5095 58.1912 69.4804 58.6332C72.1585 59.2347 74.7486 59.7234 76.0285 60.7448H76.0308Z" fill="white"/>
<path d="M62.879 59.2349C64.5995 62.6823 73.1533 62.1151 73.1533 65.3685C73.1533 68.4845 67.7043 69.3586 64.4233 66.196L62.4709 68.5091C63.7671 69.4127 66.3015 70.8908 69.6103 70.8908C73.2947 70.8908 76.4412 68.6785 76.4412 65.727C76.4412 62.476 71.4003 61.7885 69.4294 61.3465C66.7513 60.745 64.1613 60.2563 62.8814 59.2349H62.879Z" fill="white"/>
<path d="M62.4709 56.6123C63.9225 58.4563 66.7977 58.9622 69.5291 59.5367C72.664 60.1948 76.2094 60.902 76.425 62.9866C74.9642 61.6558 72.8727 61.1868 69.4712 60.5533C65.1676 59.7504 62.5544 58.859 62.4709 56.6123Z" fill="white"/>
<path d="M148.641 50.7809C146.993 52.35 146.158 54.5206 146.163 56.6961C148.206 56.9318 150.332 56.2811 151.98 54.7121C153.629 53.1431 154.464 50.9725 154.459 48.7969C152.416 48.5612 150.29 49.2119 148.641 50.7809Z" fill="white"/>
<path d="M145.312 60.7033C143.591 57.2559 135.038 57.8231 135.038 54.5696C135.038 51.3162 140.487 50.5796 143.768 53.7422L145.72 51.4291C144.424 50.5255 141.889 49.0474 138.581 49.0474C134.896 49.0474 131.75 51.2597 131.75 54.2111C131.75 57.4621 136.791 58.1497 138.761 58.5917C141.44 59.1932 144.03 59.6819 145.309 60.7033H145.312Z" fill="white"/>
<path d="M132.16 59.1909C133.881 62.6384 142.434 62.0711 142.434 65.3246C142.434 68.4406 136.985 69.3147 133.704 66.1521L131.752 68.4651C133.048 69.3687 135.582 70.8469 138.891 70.8469C142.576 70.8469 145.722 68.6345 145.722 65.6831C145.722 62.4321 140.681 61.7446 138.71 61.3026C136.032 60.701 133.442 60.2124 132.162 59.1909H132.16Z" fill="white"/>
<path d="M131.75 56.5684C133.201 58.4124 136.076 58.9182 138.808 59.4928C141.943 60.1508 145.488 60.858 145.704 62.9427C144.243 61.6118 142.151 61.1428 138.75 60.5093C134.446 59.7064 131.833 58.8151 131.75 56.5684Z" fill="white"/>
<path d="M102.963 107.099C103.417 105.208 104.194 100.202 104.071 92.7959C103.96 85.9526 102.397 80.3517 102.244 77.9331C102.093 75.5145 103.408 71.6055 103.408 71.6055C98.4946 73.8596 90.8706 73.5575 90.8706 73.5575C90.8706 73.5575 83.2165 73.6091 78.3333 71.6055C78.3333 71.6055 79.648 75.517 79.4973 77.9331C79.3466 80.3517 77.7838 85.9526 77.6701 92.7959C77.5496 100.202 78.3263 105.208 78.7785 107.099C79.233 108.99 78.5768 111.229 78.5768 111.229C78.5768 111.229 81.7094 113.151 90.6434 113.245C90.6689 113.245 90.6921 113.25 90.7199 113.25C90.7709 113.25 90.8196 113.25 90.8706 113.25C90.9216 113.25 90.9703 113.25 91.0213 113.25C91.0468 113.25 91.0723 113.245 91.0978 113.245C100.032 113.151 103.164 111.229 103.164 111.229C103.164 111.229 102.508 108.987 102.963 107.099Z" fill="#82BD46"/>
<path d="M130.917 107.099C131.372 105.208 132.148 100.202 132.026 92.7959C131.914 85.9526 130.351 80.3517 130.198 77.9331C130.048 75.5145 131.362 71.6055 131.362 71.6055C126.449 73.8596 118.825 73.5575 118.825 73.5575C118.825 73.5575 111.171 73.6091 106.288 71.6055C106.288 71.6055 107.602 75.517 107.452 77.9331C107.301 80.3517 105.738 85.9526 105.625 92.7959C105.504 100.202 106.281 105.208 106.733 107.099C107.187 108.99 106.531 111.229 106.531 111.229C106.531 111.229 109.664 113.151 118.598 113.245C118.623 113.245 118.647 113.25 118.674 113.25C118.725 113.25 118.774 113.25 118.825 113.25C118.876 113.25 118.925 113.25 118.976 113.25C119.001 113.25 119.027 113.245 119.052 113.245C127.986 113.151 131.119 111.229 131.119 111.229C131.119 111.229 130.463 108.987 130.917 107.099Z" fill="#82BD46"/>
<path d="M158.874 107.099C159.328 105.208 160.105 100.202 159.982 92.7959C159.871 85.9526 158.308 80.3517 158.155 77.9331C158.004 75.5145 159.319 71.6055 159.319 71.6055C154.406 73.8596 146.782 73.5575 146.782 73.5575C146.782 73.5575 139.128 73.6091 134.245 71.6055C134.245 71.6055 135.559 75.517 135.409 77.9331C135.258 80.3517 133.695 85.9526 133.581 92.7959C133.461 100.202 134.238 105.208 134.69 107.099C135.144 108.99 134.488 111.229 134.488 111.229C134.488 111.229 137.621 113.151 146.555 113.245C146.58 113.245 146.603 113.25 146.631 113.25C146.682 113.25 146.731 113.25 146.782 113.25C146.833 113.25 146.882 113.25 146.933 113.25C146.958 113.25 146.984 113.245 147.009 113.245C155.943 113.151 159.076 111.229 159.076 111.229C159.076 111.229 158.42 108.987 158.874 107.099Z" fill="#82BD46"/>
<path d="M230.026 65.0935H211.476V64.0033H212.675V59.8438H204.856V64.0033H206.055V65.0935H203.813C202.095 65.0935 200.699 66.5692 200.699 68.3911V109.976C200.699 111.798 202.093 113.274 203.813 113.274H230.028C231.747 113.274 233.142 111.798 233.142 109.976V68.3911C233.142 66.5692 231.749 65.0935 230.028 65.0935H230.026ZM229.78 74.0976C229.78 75.2025 228.934 76.0963 227.893 76.0963L214.871 70.7213C214.871 69.6164 215.717 68.7226 216.758 68.7226H227.893C228.936 68.7226 229.78 69.6188 229.78 70.7213V74.0976Z" fill="#82BD46"/>
<path d="M195.19 65.0935H176.64V64.0033H177.839V59.8438H170.02V64.0033H171.219V65.0935H168.977C167.258 65.0935 165.863 66.5692 165.863 68.3911V109.976C165.863 111.798 167.256 113.274 168.977 113.274H195.192C196.91 113.274 198.306 111.798 198.306 109.976V68.3911C198.306 66.5692 196.913 65.0935 195.192 65.0935H195.19ZM194.944 74.0976C194.944 75.2025 194.098 76.0963 193.056 76.0963L180.035 70.7213C180.035 69.6164 180.881 68.7226 181.922 68.7226H193.056C194.1 68.7226 194.944 69.6188 194.944 70.7213V74.0976Z" fill="#82BD46"/>
</svg>
