<svg width="322" height="145" viewBox="0 0 322 145" fill="none" xmlns="http://www.w3.org/2000/svg">
<path d="M188.646 18.0684V85.8529H164.525V18.0684L176.587 13.9556L188.646 18.0684Z" fill="#BAD8D3"/>
<path d="M188.549 51.0479H58.4878V68.7076H31.8435V91.5592V97.6006V99.3146H188.549V51.0479Z" fill="#BAD8D3"/>
<path d="M112.314 36.0073C107.924 36.0073 104.365 37.8124 104.365 40.0379V99.5231H120.265V40.0379C120.265 37.8124 116.706 36.0073 112.317 36.0073H112.314Z" fill="#358278"/>
<path d="M131.159 36.0073C126.77 36.0073 123.211 37.8124 123.211 40.0379V99.5231H139.11V40.0379C139.11 37.8124 135.551 36.0073 131.162 36.0073H131.159Z" fill="#358278"/>
<path d="M150.007 36.0073C145.618 36.0073 142.059 37.8124 142.059 40.0379V99.5231H157.959V40.0379C157.959 37.8124 154.4 36.0073 150.01 36.0073H150.007Z" fill="#358278"/>
<path d="M151.128 30.46H85.3347V32.6707H151.128V30.46Z" fill="#358278"/>
<path d="M100.877 99.526H71.9377L71.9876 42.5015L86.4555 36.0073L100.926 42.5015L100.877 99.526Z" fill="#358278"/>
<path d="M75.884 42.7983H74.6047V96.0393H75.884V42.7983Z" fill="white"/>
<path d="M80.3701 42.7983H79.0908V96.0393H80.3701V42.7983Z" fill="white"/>
<path d="M84.8535 42.7983H83.5742V96.0393H84.8535V42.7983Z" fill="white"/>
<path d="M89.3396 42.7983H88.0603V96.0393H89.3396V42.7983Z" fill="white"/>
<path d="M93.823 42.7983H92.5437V96.0393H93.823V42.7983Z" fill="white"/>
<path d="M98.309 42.7983H97.0298V96.0981H98.309V42.7983Z" fill="white"/>
<path d="M87.5764 30.46H85.3347V38.377H87.5764V30.46Z" fill="#358278"/>
<path d="M151.128 30.46H148.887V38.377H151.128V30.46Z" fill="#358278"/>
<path d="M169.434 111.418C164.502 111.418 160.512 115.422 160.512 120.358C160.512 125.294 164.502 129.298 169.434 129.298C174.366 129.298 178.357 125.294 178.357 120.358C178.357 115.422 174.361 111.418 169.434 111.418ZM169.434 125.268C166.726 125.268 164.531 123.072 164.531 120.358C164.531 117.645 166.726 115.449 169.434 115.449C172.142 115.449 174.334 117.648 174.334 120.358C174.334 123.069 172.139 125.268 169.434 125.268Z" fill="#82BD46"/>
<path d="M147.156 111.418C142.229 111.418 138.233 115.422 138.233 120.358C138.233 125.294 142.229 129.298 147.156 129.298C152.082 129.298 156.078 125.294 156.078 120.358C156.078 115.422 152.082 111.418 147.156 111.418ZM147.156 125.268C144.448 125.268 142.256 123.072 142.256 120.358C142.256 117.645 144.448 115.449 147.156 115.449C149.864 115.449 152.056 117.648 152.056 120.358C152.056 123.069 149.861 125.268 147.156 125.268Z" fill="#82BD46"/>
<path d="M141.375 82.6454C141.375 82.6454 166.776 63.6274 172.371 63.6274C177.966 63.6274 202.096 81.884 202.096 81.884L141.375 82.6484V82.6454Z" fill="#82BD46"/>
<path d="M280.463 102.063C279.174 99.3025 276.191 96.5949 273.177 96.5949H265.534V83.927H267.063V83.2802C267.063 82.8099 266.681 82.4247 266.212 82.4247H261.326C260.857 82.4247 260.476 82.8099 260.476 83.2802V83.927H262.004V96.5949H257.685L253.314 78.2148H227.256L224.234 99.9316C224.152 100.126 224.105 100.337 224.043 100.543C226.543 99.132 229.421 98.3147 232.496 98.3147C234.571 98.3147 236.545 98.6998 238.388 99.376V81.1341H251.169L257.345 108.616H248.246C249.182 110.744 249.713 113.09 249.713 115.566C249.713 117.415 249.417 119.197 248.874 120.869H268.318C268.307 120.672 268.289 120.478 268.289 120.281C268.289 113.902 273.447 108.731 279.811 108.731C281.008 108.731 282.164 108.913 283.25 109.254L280.457 102.063H280.463ZM227.23 95.9599L229.436 81.1341H236.14L236.217 95.9599H227.233H227.23Z" fill="#82BD46"/>
<path d="M279.817 110.042C274.107 110.042 269.477 114.681 269.477 120.402C269.477 126.123 274.107 130.762 279.817 130.762C285.527 130.762 290.157 126.123 290.157 120.402C290.157 114.681 285.527 110.042 279.817 110.042ZM279.817 126.091C276.678 126.091 274.14 123.542 274.14 120.402C274.14 117.262 276.678 114.713 279.817 114.713C282.956 114.713 285.494 117.256 285.494 120.402C285.494 123.548 282.951 126.091 279.817 126.091Z" fill="#82BD46"/>
<path d="M232.496 100.084C223.961 100.084 217.042 107.017 217.042 115.566C217.042 115.907 217.054 116.245 217.078 116.58C217.128 117.421 217.251 118.247 217.433 119.05C219.011 125.92 225.155 131.047 232.496 131.047C241.029 131.047 247.947 124.115 247.947 115.566C247.947 107.017 241.029 100.084 232.496 100.084ZM232.496 123.586C228.075 123.586 224.489 119.996 224.489 115.566C224.489 111.135 228.075 107.546 232.496 107.546C236.918 107.546 240.5 111.135 240.5 115.566C240.5 119.996 236.915 123.586 232.496 123.586Z" fill="#82BD46"/>
<path d="M157.595 120.761H158.989C158.98 120.59 158.962 120.423 158.962 120.252C158.962 118.212 159.555 116.313 160.561 114.699H156.02C157.026 116.31 157.619 118.209 157.619 120.252C157.619 120.423 157.601 120.59 157.592 120.761H157.595Z" fill="#82BD46"/>
<path d="M136.687 120.252C136.687 118.212 137.279 116.313 138.286 114.699H134.703V120.758H136.713C136.704 120.587 136.687 120.42 136.687 120.249V120.252Z" fill="#82BD46"/>
<path d="M210.391 116.577V114.702H178.301C179.307 116.313 179.9 118.212 179.9 120.255C179.9 120.426 179.882 120.593 179.873 120.764H210.391V119.05H223.7V116.577H210.391Z" fill="#82BD46"/>
<path d="M127.603 80.7109V113.132H139.583C141.49 111.127 144.172 109.874 147.153 109.874C150.134 109.874 152.816 111.13 154.723 113.132H161.861C163.768 111.127 166.45 109.874 169.431 109.874C172.412 109.874 175.094 111.13 177.001 113.132H210.388L215.866 80.7109H127.6H127.603Z" fill="#82BD46"/>
<path d="M214.707 87.5903H132.984V85.2119H215.109L214.707 87.5903Z" fill="white"/>
</svg>
