<svg xmlns="http://www.w3.org/2000/svg" viewBox="0 0 170 72"><path fill="#fff" d="M72.3 41.6h-8.06v-1.55c0-.64.07-1.24.21-1.8a3.84 3.84 0 0 1 .74-1.5c.35-.43.84-.77 1.44-1.01a7.66 7.66 0 0 1 4.14-.16 9.36 9.36 0 0 1 1.52.42l1.06-4.3a19.29 19.29 0 0 0-1.95-.57c-.99-.23-2.09-.35-3.27-.35-3.16 0-5.56.83-7.15 2.46-1.59 1.65-2.4 3.9-2.4 6.72v23.57h5.66V46.12h8.05V41.6zm7 13.63a2.86 2.86 0 0 1 1.14-.97 5.02 5.02 0 0 1 1.55-.45 13.22 13.22 0 0 1 3.28-.03c.55.06.95.12 1.23.18l.34.08v5.6l-.36.05c-.37.06-.86.11-1.45.14-.59.03-1.21.04-1.86.04a6.18 6.18 0 0 1-3.04-.64c-.83-.47-1.24-1.3-1.24-2.47 0-.6.14-1.12.42-1.53zm-6.03 1.7c0 1.32.22 2.44.66 3.33a5.46 5.46 0 0 0 1.87 2.15c.82.56 1.82.96 2.97 1.21a19 19 0 0 0 3.96.38c2.32 0 4.33-.14 5.97-.4a94.54 94.54 0 0 0 3.53-.64V49.88c0-1.37-.16-2.63-.47-3.74a6.46 6.46 0 0 0-1.53-2.77 7.1 7.1 0 0 0-2.91-1.75 14.9 14.9 0 0 0-4.68-.62c-.73 0-1.48.03-2.21.1s-1.44.16-2.1.26a25.04 25.04 0 0 0-2.86.6l.7 4.32a15.89 15.89 0 0 1 2.38-.53 23.15 23.15 0 0 1 3.35-.24c1.8 0 3.04.37 3.8 1.12a3.98 3.98 0 0 1 1.14 2.95v1.17l-.55-.16c-.4-.1-.9-.2-1.53-.27a20.54 20.54 0 0 0-2.2-.1c-1.22 0-2.41.12-3.55.36a9.48 9.48 0 0 0-2.97 1.13 5.8 5.8 0 0 0-2.02 2.06 6.2 6.2 0 0 0-.75 3.17zm31.04-11.16c.92 0 1.8.08 2.62.25l1.64.35.93-4.53a7.74 7.74 0 0 0-.86-.23 26.37 26.37 0 0 0-2.93-.42 14.57 14.57 0 0 0-1.23-.06c-1.91 0-3.67.17-5.22.52a40.82 40.82 0 0 0-3.8 1.04v20.83h5.66v-17.3l.3-.09c.32-.09.76-.17 1.37-.25a12.4 12.4 0 0 1 1.52-.1zM137 47.23c.59.94.87 2.46.87 4.64v11.65h5.66V51.1c0-1.52-.13-2.92-.39-4.16a7.68 7.68 0 0 0-1.36-3.12 6.42 6.42 0 0 0-2.65-2 11.24 11.24 0 0 0-4.36-.73c-.97 0-2.05.18-3.22.55-1.16.35-2.2.86-3.09 1.5l-.28.19-.25-.22a8.79 8.79 0 0 0-2.44-1.42c-.98-.4-2.3-.6-3.89-.6a31.32 31.32 0 0 0-5.07.4c-.82.13-1.6.28-2.34.44a45.19 45.19 0 0 0-1.6.36v21.24h5.65V46l.37-.05 1.29-.16c.44-.04.88-.06 1.3-.06 1.47 0 2.53.5 3.15 1.5.6.94.88 2.46.88 4.64v11.65h5.65v-12c0-.82-.02-1.6-.08-2.32a9.4 9.4 0 0 0-.38-2.01l-.1-.31.28-.18c.44-.28 1-.51 1.67-.7a6.24 6.24 0 0 1 1.58-.27c1.47 0 2.53.5 3.15 1.5zm9.82 16.3h5.66V41.6h-5.66v21.92z"/><path fill="#003478" d="m153.54 34.23-3.9 3.85-3.89-3.85 3.9-3.86 3.9 3.86z"/><path fill="#fff" d="m46.45 38.58-11.27 6.93-.05-15.18s-.1-2.38 1.03-3.41l12.98-11.38.04 16.01s.23 5.11-2.73 7.03zM20.11 42.2l.63-10.4L29 39.47s2.24 1.8 2.12 5.68l.04 8.28-9.64-8.66s-1.42-1.2-1.41-2.56zm33-10.92L53.04 8 32.7 24.21c-1.66 1.48-1.56 4.36-1.56 4.36l.02 7.45-.4-.35-13.36-12.2L16 43.4c.02 1.92 1.67 3.16 1.67 3.16l13.56 12.3v2.64c0 1.98 4 1.96 4 1.96l-.04-13.52 10.7-6.35c8.15-4 7.22-12.31 7.22-12.31z"/><path fill="#89BA43" d="M37.11 28.12c-.48.42-.67 1.73-.64 2.48V43l8.98-5.5c2.45-1.52 2.31-6.02 2.3-6.07V18.76l-10.64 9.36z"/></svg>