<svg width="512" height="332" viewBox="0 0 512 332" fill="none" xmlns="http://www.w3.org/2000/svg">
<g clip-path="url(#clip0_383_3240)">
<path d="M512 155.873C512.001 169.081 507.009 181.804 498.023 191.496C489.037 201.189 476.718 207.138 463.53 208.153C463.085 208.187 462.634 208.22 462.183 208.24V158.474C462.184 157.977 462.073 157.486 461.859 157.037C461.644 156.588 461.332 156.192 460.945 155.88C460.9 155.834 460.851 155.793 460.797 155.759C460.748 155.719 460.696 155.683 460.642 155.651C460.169 155.347 459.627 155.166 459.066 155.125C458.505 155.084 457.943 155.184 457.431 155.416L456.872 154.192C457.483 153.914 458.146 153.77 458.818 153.769L420.472 120.782C420.769 120.446 421.078 120.116 421.388 119.787C428.617 112.177 437.965 106.907 448.224 104.658C458.484 102.409 469.183 103.283 478.939 107.169C488.696 111.054 497.061 117.772 502.955 126.454C508.848 135.136 511.999 145.384 512 155.873Z" fill="#F0F4F2"/>
<path d="M13.3142 191.626C13.1235 190.654 13.1487 189.651 13.3881 188.689C13.6275 187.727 14.0753 186.829 14.6998 186.058C15.3243 185.287 16.1105 184.663 17.0028 184.229C17.8952 183.794 18.8721 183.56 19.8647 183.544L50.1329 147.563L57.6895 157.211L26.8419 190.697C26.7593 192.364 26.0672 193.943 24.8968 195.134C23.7264 196.326 22.1589 197.047 20.4914 197.162C18.824 197.276 17.1724 196.776 15.8496 195.756C14.5267 194.736 13.6246 193.266 13.3142 191.626Z" fill="#F9A200"/>
<path d="M157.047 147.341C156.835 147.647 156.648 147.969 156.487 148.304L123.437 153.022L118.418 146.66L107.813 152.968L117.782 168.489L158.09 156.624C159.153 157.585 160.485 158.201 161.907 158.388C163.33 158.576 164.776 158.326 166.053 157.673C167.33 157.02 168.377 155.994 169.056 154.732C169.735 153.469 170.013 152.031 169.853 150.607C169.693 149.183 169.103 147.842 168.161 146.761C167.219 145.68 165.97 144.911 164.58 144.557C163.19 144.202 161.724 144.279 160.379 144.776C159.033 145.273 157.871 146.168 157.047 147.341Z" fill="#F9A200"/>
<path d="M100.593 267.558L106.441 273.373L131.686 253.614L123.054 245.032L100.593 267.558Z" fill="#F9A200"/>
<path d="M112.313 290.011L93.9323 271.735L101.004 264.643L112.283 275.858C113.215 276.785 113.956 277.887 114.462 279.1C114.968 280.313 115.23 281.614 115.233 282.928C115.236 284.242 114.98 285.544 114.479 286.76C113.978 287.975 113.242 289.08 112.313 290.011Z" fill="#032D3A"/>
<path d="M69.5045 323.335H77.7579L81.6839 291.546H69.5032L69.5045 323.335Z" fill="#F9A200"/>
<path d="M93.6748 330.987L67.7362 330.988L67.7357 320.98L83.6526 320.979C84.9687 320.979 86.2719 321.238 87.4878 321.741C88.7037 322.244 89.8085 322.981 90.7392 323.91C91.6698 324.84 92.4081 325.943 92.9118 327.157C93.4155 328.371 93.6747 329.672 93.6748 330.987Z" fill="#032D3A"/>
<path d="M67.7105 298.782L58.3097 229.55C56.8384 219.088 57.295 208.445 59.6569 198.146C61.586 189.869 64.1921 184.136 67.4031 181.107C67.9099 180.632 68.5586 180.336 69.2498 180.265L100.288 177.036C100.886 176.975 101.489 177.085 102.027 177.353C102.564 177.621 103.014 178.037 103.325 178.551L104.345 180.249C104.469 180.455 104.569 180.675 104.643 180.903L111.205 201.218C111.303 201.525 111.461 201.81 111.67 202.055C111.879 202.301 112.135 202.502 112.422 202.648C122.755 207.915 156.317 225.697 154.396 233.369C152.592 240.578 135.695 252.266 130.56 255.676C130.037 256.025 129.421 256.209 128.792 256.205C128.163 256.2 127.55 256.006 127.032 255.649L118.508 249.825C118.091 249.541 117.749 249.161 117.51 248.718C117.271 248.274 117.142 247.78 117.133 247.277C117.124 246.773 117.236 246.275 117.46 245.823C117.683 245.372 118.012 244.98 118.418 244.682L124.296 240.356C124.656 240.091 124.937 239.733 125.108 239.321C125.279 238.909 125.335 238.458 125.269 238.017C125.202 237.575 125.017 237.16 124.732 236.816C124.447 236.472 124.074 236.213 123.652 236.065L92.0803 225.002C91.7258 224.878 91.3475 224.837 90.9745 224.881C90.6015 224.926 90.2436 225.055 89.9286 225.26C89.6135 225.464 89.3495 225.738 89.1569 226.06C88.9643 226.382 88.8483 226.744 88.8177 227.118L82.9965 298.166C82.9322 298.927 82.5939 299.64 82.044 300.172C81.4942 300.704 80.77 301.019 80.0055 301.059L70.9986 301.509C70.9438 301.511 70.8894 301.513 70.8351 301.513C70.0706 301.516 69.3314 301.24 68.7561 300.737C68.1808 300.235 67.809 299.539 67.7105 298.782Z" fill="#032D3A"/>
<path d="M81.9455 119.716C91.0771 119.716 98.4798 112.324 98.4798 103.205C98.4798 94.0863 91.0771 86.6941 81.9455 86.6941C72.8138 86.6941 65.4111 94.0863 65.4111 103.205C65.4111 112.324 72.8138 119.716 81.9455 119.716Z" fill="#F9A200"/>
<path d="M66.4805 178.278L54.3097 133.934L54.5181 133.794C54.7795 133.618 81.0127 116.32 111.726 130.26L112.283 130.579L105.071 176.605C104.914 177.656 104.395 178.618 103.603 179.327C102.811 180.036 101.796 180.447 100.733 180.488L71.0568 181.628C70.997 181.63 70.9374 181.632 70.8781 181.632C69.8777 181.634 68.9045 181.307 68.1094 180.7C67.3143 180.094 66.7417 179.243 66.4805 178.278Z" fill="#358278"/>
<path d="M53.8465 162.803L43.71 151.163C43.2218 150.604 42.9469 149.89 42.9338 149.148C42.9207 148.407 43.1702 147.684 43.6384 147.108L54.2349 134.036L62.3694 136.252L66.682 151.324L58.8187 162.542C58.5444 162.936 58.1834 163.261 57.7634 163.494C57.3434 163.726 56.8756 163.86 56.3959 163.883C56.3392 163.886 56.2828 163.887 56.2264 163.887C55.7749 163.888 55.3286 163.792 54.9179 163.605C54.5071 163.418 54.1417 163.144 53.8465 162.803Z" fill="#358278"/>
<path d="M109.9 160.378C109.42 160.354 108.953 160.221 108.532 159.989C108.112 159.756 107.751 159.431 107.477 159.037L99.6139 147.819L103.396 131.953L110.886 129.913L112.283 130.579L122.657 143.603C123.126 144.179 123.375 144.901 123.362 145.643C123.349 146.385 123.074 147.098 122.586 147.658L112.449 159.298C112.154 159.639 111.789 159.912 111.378 160.099C110.967 160.287 110.521 160.383 110.069 160.382C110.013 160.382 109.957 160.381 109.9 160.378Z" fill="#358278"/>
<path d="M462.184 155.18C462.19 155.348 462.132 155.511 462.022 155.637C461.906 155.773 461.741 155.857 461.563 155.871C461.385 155.885 461.209 155.827 461.073 155.711L458.818 153.769L420.473 120.782L312.923 28.2477C312.31 27.7233 311.528 27.4356 310.721 27.4368C309.913 27.4381 309.133 27.7281 308.521 28.2545L163.69 153.903L162.384 155.032C162.333 155.077 162.277 155.113 162.215 155.14C162.107 155.188 161.989 155.206 161.872 155.194C161.704 155.176 161.548 155.097 161.434 154.972C161.376 154.906 161.331 154.829 161.302 154.745C161.274 154.662 161.262 154.574 161.267 154.486C161.273 154.397 161.296 154.311 161.335 154.232C161.374 154.153 161.428 154.082 161.495 154.024L161.677 153.863L307.639 27.2394C308.496 26.5038 309.589 26.0982 310.719 26.0957C311.85 26.0932 312.944 26.4941 313.805 27.2259L421.388 119.787L461.948 154.69C462.019 154.751 462.076 154.826 462.117 154.911C462.157 154.995 462.18 155.087 462.184 155.18Z" fill="#032D3A"/>
<path d="M380.411 175.032L378.64 170.165L372.541 153.359L359.4 117.172L344.711 76.7231L318.221 3.76472C317.701 2.34197 316.637 1.18304 315.263 0.541717C313.889 -0.0996085 312.317 -0.171056 310.89 0.343017L157.732 55.7962C156.307 56.3151 155.146 57.3771 154.503 58.7494C153.861 60.1217 153.79 61.6923 154.305 63.1169L191.863 166.548L192.502 168.316L231.924 186.157L243.005 191.172L244.803 191.986L291.718 213.222L293.535 212.563L324.307 201.424L370.724 184.618L376.978 182.352C378.403 181.834 379.565 180.772 380.209 179.4C380.852 178.028 380.925 176.457 380.411 175.032Z" fill="#24564D"/>
<path d="M316.188 88.8772C315.424 86.7833 313.86 85.0773 311.838 84.1335C309.816 83.1896 307.502 83.0848 305.403 83.8421L244.803 105.791L215.539 116.385C214.499 116.761 213.544 117.337 212.727 118.081C211.91 118.825 211.249 119.723 210.78 120.723C210.311 121.723 210.044 122.805 209.994 123.908C209.944 125.011 210.112 126.113 210.489 127.151C210.866 128.189 211.444 129.142 212.19 129.957C212.936 130.772 213.836 131.432 214.837 131.899C215.839 132.366 216.923 132.632 218.028 132.681C219.132 132.729 220.236 132.56 221.275 132.183L244.803 123.666L311.146 99.6465C313.243 98.8835 314.951 97.3214 315.896 95.3026C316.841 93.2838 316.946 90.9731 316.188 88.8772Z" fill="white"/>
<path d="M326.858 118.268C326.094 116.174 324.53 114.468 322.508 113.524C320.486 112.58 318.173 112.475 316.074 113.233L305.807 116.95L244.802 139.04L226.209 145.769C224.112 146.53 222.404 148.091 221.459 150.109C220.514 152.128 220.411 154.438 221.171 156.532C221.931 158.627 223.493 160.334 225.513 161.28C227.533 162.225 229.847 162.331 231.945 161.573L244.802 156.915L321.816 129.03C321.991 128.97 322.159 128.896 322.328 128.822C324.283 127.965 325.839 126.398 326.68 124.438C327.522 122.478 327.585 120.273 326.858 118.268Z" fill="white"/>
<path d="M337.643 147.967C336.88 145.874 335.317 144.168 333.297 143.224C331.276 142.28 328.963 142.175 326.865 142.932L298.073 153.359L275.783 161.432L244.803 172.645L236.994 175.475C235.189 176.132 233.663 177.384 232.667 179.024C231.672 180.665 231.268 182.595 231.52 184.497C231.598 185.063 231.733 185.619 231.924 186.157L243.005 191.172L244.803 190.52H244.816L301.035 170.165L332.6 158.737C334.699 157.975 336.408 156.413 337.354 154.394C338.299 152.375 338.403 150.063 337.643 147.967Z" fill="white"/>
<path d="M274.544 59.9843C273.78 57.8904 272.216 56.1845 270.194 55.2407C268.173 54.2968 265.859 54.192 263.76 54.9492L228.955 67.547C226.859 68.308 225.15 69.8691 224.205 71.8873C223.261 73.9056 223.157 76.2158 223.917 78.3103C224.677 80.4048 226.239 82.1123 228.259 83.0576C230.28 84.0028 232.593 84.1085 234.691 83.3514L245.705 79.365L252.995 76.7231L269.502 70.7469C271.599 69.9854 273.307 68.4246 274.252 66.4068C275.197 64.3891 275.302 62.0793 274.544 59.9843Z" fill="white"/>
<path d="M413.438 76.723H250.525C249.564 76.724 248.619 76.9665 247.776 77.4282C246.934 77.8899 246.222 78.556 245.705 79.3649C245.114 80.2809 244.801 81.3476 244.802 82.4371V191.986L291.718 213.222L298.328 216.213L308.769 220.939C309.381 221.215 310.044 221.357 310.715 221.357C311.386 221.357 312.049 221.215 312.661 220.939L323.102 216.213L355.779 201.424L386.234 187.636L419.16 172.739V82.4371C419.159 80.9219 418.556 79.4691 417.483 78.3977C416.41 77.3263 414.955 76.724 413.438 76.723Z" fill="#88BB38"/>
<path d="M379.778 153.359H284.184C282.011 153.36 279.922 154.201 278.356 155.706C276.79 157.211 275.867 159.263 275.783 161.432C275.772 161.542 275.767 161.652 275.769 161.762C275.772 163.989 276.66 166.125 278.238 167.7C279.815 169.275 281.953 170.162 284.184 170.165H379.778C382.01 170.165 384.15 169.279 385.728 167.703C387.306 166.128 388.193 163.99 388.193 161.762C388.193 159.533 387.306 157.396 385.728 155.82C384.15 154.244 382.01 153.359 379.778 153.359Z" fill="white"/>
<path d="M385.224 186.621C383.707 185.325 381.775 184.614 379.778 184.618H284.184C281.953 184.618 279.812 185.503 278.234 187.079C276.656 188.655 275.769 190.792 275.769 193.021C275.769 195.249 276.656 197.387 278.234 198.963C279.812 200.539 281.953 201.424 284.184 201.424H355.779L386.234 187.636C385.927 187.27 385.589 186.93 385.224 186.621Z" fill="white"/>
<path d="M298.328 216.213L308.769 220.939C309.381 221.215 310.044 221.357 310.715 221.357C311.386 221.357 312.049 221.215 312.661 220.939L323.102 216.213H298.328Z" fill="white"/>
<path d="M358.397 117.535C357.805 115.917 356.729 114.52 355.315 113.533C353.902 112.546 352.219 112.016 350.494 112.016H313.468C311.852 112.017 310.27 112.483 308.911 113.358C307.553 114.233 306.475 115.48 305.807 116.95C305.309 118.038 305.051 119.222 305.053 120.419C305.056 122.646 305.944 124.782 307.521 126.357C309.099 127.932 311.237 128.819 313.468 128.822H350.494C351.848 128.822 353.181 128.496 354.382 127.871C355.582 127.247 356.614 126.342 357.39 125.234C358.166 124.127 358.663 122.848 358.838 121.508C359.013 120.167 358.862 118.804 358.397 117.535Z" fill="white"/>
<path d="M352.514 201.424L319.837 216.213L312.102 219.716C311.666 219.912 311.193 220.013 310.715 220.013C310.237 220.013 309.764 219.912 309.328 219.716L301.593 216.213H298.328L308.769 220.939C309.381 221.215 310.044 221.358 310.715 221.358C311.386 221.358 312.049 221.215 312.661 220.939L323.102 216.213L355.779 201.424H352.514ZM352.514 201.424L319.837 216.213L312.102 219.716C311.666 219.912 311.193 220.013 310.715 220.013C310.237 220.013 309.764 219.912 309.328 219.716L301.593 216.213H298.328L308.769 220.939C309.381 221.215 310.044 221.358 310.715 221.358C311.386 221.358 312.049 221.215 312.661 220.939L323.102 216.213L355.779 201.424H352.514ZM352.514 201.424L319.837 216.213L312.102 219.716C311.666 219.912 311.193 220.013 310.715 220.013C310.237 220.013 309.764 219.912 309.328 219.716L301.593 216.213H298.328L308.769 220.939C309.381 221.215 310.044 221.358 310.715 221.358C311.386 221.358 312.049 221.215 312.661 220.939L323.102 216.213L355.779 201.424H352.514ZM462.184 155.18C461.935 154.934 461.662 154.713 461.369 154.522C460.708 154.093 459.949 153.839 459.163 153.781C458.377 153.724 457.589 153.865 456.872 154.192L385.224 186.621L352.514 201.424L319.837 216.213L312.102 219.716C311.666 219.912 311.193 220.013 310.715 220.013C310.237 220.013 309.764 219.912 309.328 219.716L301.593 216.213L293.535 212.563L244.816 190.52L244.803 190.513L231.52 184.497L191.863 166.548L164.558 154.192C164.28 154.064 163.989 153.967 163.69 153.903C163.03 153.739 162.342 153.725 161.677 153.863C160.612 154.08 159.655 154.658 158.967 155.498C158.279 156.338 157.902 157.389 157.9 158.474V327.294C157.901 328.542 158.398 329.738 159.282 330.62C160.165 331.502 161.363 331.999 162.612 332H458.818C460.067 331.999 461.265 331.502 462.148 330.62C463.032 329.738 463.529 328.542 463.53 327.294V158.474C463.532 157.242 463.049 156.059 462.184 155.18ZM462.184 327.294C462.183 328.186 461.829 329.04 461.197 329.671C460.566 330.301 459.71 330.655 458.818 330.656H162.612C161.72 330.655 160.864 330.301 160.233 329.671C159.601 329.04 159.247 328.186 159.246 327.294V158.474C159.247 157.913 159.388 157.36 159.657 156.867C159.926 156.373 160.315 155.956 160.788 155.651C161.121 155.438 161.487 155.284 161.872 155.194C161.985 155.169 162.1 155.151 162.215 155.14C162.347 155.121 162.479 155.112 162.612 155.113C163.091 155.114 163.564 155.217 163.999 155.416L192.502 168.316L231.924 186.157L243.005 191.172L244.802 191.986L291.718 213.222L298.328 216.213L308.769 220.939C309.381 221.215 310.044 221.358 310.715 221.358C311.386 221.358 312.049 221.215 312.661 220.939L323.102 216.213L355.779 201.424L386.234 187.636L457.431 155.416C457.943 155.184 458.505 155.084 459.066 155.125C459.627 155.166 460.169 155.347 460.642 155.651C460.696 155.683 460.748 155.719 460.797 155.759C460.851 155.793 460.9 155.834 460.945 155.88C461.332 156.192 461.644 156.588 461.859 157.037C462.073 157.486 462.184 157.977 462.184 158.474L462.184 327.294ZM352.514 201.424L319.837 216.213L312.102 219.716C311.666 219.912 311.193 220.013 310.715 220.013C310.237 220.013 309.764 219.912 309.328 219.716L301.593 216.213H298.328L308.769 220.939C309.381 221.215 310.044 221.358 310.715 221.358C311.386 221.358 312.049 221.215 312.661 220.939L323.102 216.213L355.779 201.424H352.514ZM352.514 201.424L319.837 216.213L312.102 219.716C311.666 219.912 311.193 220.013 310.715 220.013C310.237 220.013 309.764 219.912 309.328 219.716L301.593 216.213H298.328L308.769 220.939C309.381 221.215 310.044 221.358 310.715 221.358C311.386 221.358 312.049 221.215 312.661 220.939L323.102 216.213L355.779 201.424H352.514ZM243.005 191.172L244.802 191.986V190.52L243.005 191.172ZM352.514 201.424L319.837 216.213L312.102 219.716C311.666 219.912 311.193 220.013 310.715 220.013C310.237 220.013 309.764 219.912 309.328 219.716L301.593 216.213H298.328L308.769 220.939C309.381 221.215 310.044 221.358 310.715 221.358C311.386 221.358 312.049 221.215 312.661 220.939L323.102 216.213L355.779 201.424H352.514Z" fill="#032D3A"/>
<path d="M118.163 332H42.0921C41.9136 332 41.7424 331.929 41.6161 331.803C41.4899 331.677 41.4189 331.506 41.4189 331.328C41.4189 331.149 41.4899 330.978 41.6161 330.852C41.7424 330.726 41.9136 330.656 42.0921 330.656H118.163C118.342 330.656 118.513 330.726 118.639 330.852C118.765 330.978 118.836 331.149 118.836 331.328C118.836 331.506 118.765 331.677 118.639 331.803C118.513 331.929 118.342 332 118.163 332Z" fill="#032D3A"/>
<path d="M75.6587 115.28C74.4167 114.65 73.3841 113.675 72.6857 112.472C71.9873 111.268 71.6531 109.889 71.7236 108.5C71.7941 107.111 72.2663 105.772 73.0829 104.646C73.8996 103.519 75.0257 102.653 76.325 102.152C81.3144 100.23 86.9078 104.154 92.1378 103.038C97.3506 101.926 100.366 95.7029 99.1218 90.5271C97.8776 85.3513 93.3489 81.4529 88.3553 79.5911C85.0939 78.3781 81.6011 77.9131 78.1354 78.2303C74.6698 78.5475 71.3199 79.6389 68.3337 81.4237C65.3783 83.2607 62.9169 85.7908 61.1636 88.794C59.4102 91.7971 58.418 95.1825 58.2731 98.6557C58.2052 102.132 59.0557 105.565 60.739 108.609C62.4224 111.652 64.8791 114.199 67.8618 115.993C69.191 116.758 70.7383 117.373 72.2333 117.028C73.4606 116.63 74.6168 116.04 75.6587 115.28Z" fill="#032D3A"/>
<path d="M70.3005 81.0214C65.9009 75.1941 59.9618 70.4069 53.0509 68.0335C46.14 65.6601 38.2425 65.8506 31.7519 69.2047C25.2613 72.5588 20.4209 79.2202 19.9156 86.5007C19.0747 98.6176 29.443 108.917 30.5071 121.017C30.8443 124.852 30.221 128.711 28.6931 132.245C27.1653 135.78 24.7809 138.88 21.7548 141.265C18.7287 143.651 15.1559 145.247 11.3583 145.91C7.56059 146.574 3.65731 146.283 0 145.065C2.60495 147.206 5.62518 148.787 8.87097 149.706C12.1168 150.626 15.518 150.866 18.8609 150.41C22.1984 149.91 25.3826 148.674 28.1826 146.793C30.9826 144.912 33.3282 142.432 35.0494 139.533C37.3829 135.484 38.341 130.781 38.7132 126.125C39.2978 118.762 38.5062 111.355 36.3788 104.281C35.2158 100.422 33.6386 96.4503 34.3761 92.4878C34.7965 90.4268 35.814 88.5345 37.3024 87.0461C38.7907 85.5577 40.6842 84.5388 42.7476 84.116C46.0821 83.492 49.4914 84.5083 52.6754 85.6779C55.8594 86.8475 59.0696 88.2009 62.4613 88.2784C65.853 88.3558 69.5472 86.8055 70.8579 83.6808L70.3005 81.0214Z" fill="#032D3A"/>
</g>
<defs>
<clipPath id="clip0_383_3240">
<rect width="512" height="332" fill="white"/>
</clipPath>
</defs>
</svg>
